<?xml version="1.0" encoding="UTF-8"?>
<svg width="37px" height="68px" viewBox="0 0 37 68" version="1.1" xmlns="http://www.w3.org/2000/svg" xmlns:xlink="http://www.w3.org/1999/xlink">
    <!-- Generator: Sketch 49.1 (51147) - http://www.bohemiancoding.com/sketch -->
    <title>candy-cane</title>
    <desc>Created with Sketch.</desc>
    <defs></defs>
    <g id="Images" stroke="none" stroke-width="1" fill="none" fill-rule="evenodd">
        <g id="candy-cane" fill="#000000" fill-rule="nonzero">
            <path d="M12.4,46.27 C11.4,44.8 10.47,43.34 9.52,41.87 C6.50719085,37.3518636 4.06528814,32.4781348 2.25,27.36 C0.0747870935,21.4704765 -0.180746447,15.043633 1.52,9 C2.22891167,6.18242007 3.90696903,3.70427629 6.26,2 C8.17182768,0.635626686 10.6194825,0.264207143 12.85,1 C17.25,2.15 20.69,4.86 23.74,8.07 C25.763672,10.3819031 25.888886,13.7960715 24.04,16.25 C23.6028242,16.805927 23.0410343,17.2512483 22.4,17.55 C20.83,18.26 20.06,18.05 19.24,16.55 C17.9381816,14.3454531 16.0702707,12.5293327 13.83,11.29 C10.83,9.43 7.9,10.92 7.34,14.46 C6.89610246,17.7555791 7.542287,21.1059055 9.18,24 C11.3595719,27.89071 13.739434,31.6657788 16.31,35.31 C18.16,38.11 20.05,40.89 22.07,43.56 C25.07,47.56 28.26,51.49 31.33,55.47 C31.91,56.22 32.33,57.1 32.83,57.89 C33.1920597,58.5010645 33.6361961,59.0595996 34.15,59.55 C35.7,60.85 36.47,62.48 35.84,64.07 C35.13,65.87 34.18,67.51 31.84,67.74 C29.5,67.97 27.61,67.49 26.13,65.26 C23.75,61.68 20.99,58.35 18.45,54.88 C16.38,52.05 14.38,49.16 12.35,46.3 L12.4,46.27 Z M22.11,55.9 L26.25,52.09 L22.25,47.19 C20.8401708,47.7896884 19.7131518,48.9059738 19.1,50.31 C18.6220105,50.9923641 18.6715445,51.9128706 19.22,52.54 C20.19,53.61 21.1,54.7 22.11,55.9 Z M8,35.75 L12.26,33 C11.16,31.32 10.21,29.77 9.14,28.31 C8.80712091,27.9031308 8.31534519,27.6590644 7.79,27.64 C6.66650186,27.790028 5.55409723,28.0138451 4.46,28.31 L8,35.75 Z M15,37 C13.6990259,37.4690716 12.6260518,38.4168654 12,39.65 C11.6831946,40.2703455 11.636166,40.9938629 11.87,41.65 C12.6046379,42.9611239 13.4125857,44.2298022 14.29,45.45 L18.22,42.08 L15,37 Z M6.91,10.86 C7.7,10.34 8.4,9.95 9.01,9.46 C9.35,9.19 9.8,8.71 9.76,8.37 C9.56,6.53 9.76,4.55 8.19,2.86 C7.57,3.26 6.95,3.6 6.42,4.03 C3.26,6.58 3.38,8.58 6.91,10.86 Z M31.39,59.17 L28.85,56.31 C27.1910522,57.3637665 25.9067826,58.9139883 25.18,60.74 L28,64.17 L31.39,59.17 Z M6.39,22.6 C5.99,20.6 5.59,19.11 5.39,17.6 C5.19,16.09 4.24,15.15 2.56,14.68 C2.12650152,17.2806787 2.36751907,19.9490872 3.26,22.43 L6.39,22.6 Z M13.64,9.12 L15.15,9.99 L16.73,10.84 C18.15,6.34 17.94,4.46 13.91,3.74 L13.64,9.12 Z M30.07,65.83 C31.4529014,66.3300907 32.9900576,65.7040018 33.63,64.38 C34.0257803,63.4662023 33.6890015,62.4004467 32.84,61.88 C31.84,61.34 31.24,61.98 30.92,62.7 C30.5559404,63.7197163 30.2717499,64.766206 30.07,65.83 Z M21.41,16.07 C23.54,14.73 23.96,12.62 22.53,11.07 C20.61,12.67 20.34,13.73 21.41,16.07 Z" id="Shape"></path>
        </g>
    </g>
</svg>