<?xml version="1.0" encoding="UTF-8"?>
<svg width="420px" height="521px" viewBox="0 0 420 521" version="1.1" xmlns="http://www.w3.org/2000/svg" xmlns:xlink="http://www.w3.org/1999/xlink">
    <!-- Generator: Sketch 52.5 (67469) - http://www.bohemiancoding.com/sketch -->
    <title>noun_presents_1285906</title>
    <desc>Created with Sketch.</desc>
    <g id="Holidelays-Game" stroke="none" stroke-width="1" fill="none" fill-rule="evenodd">
        <g id="noun_presents_1285906" fill="#000000">
            <path d="M221.287307,33.7180804 C228.972328,30.4259176 230.619119,24.9389796 228.423398,18.354654 C226.776608,12.867716 233.363769,1.89384 238.85307,0.247758596 C243.244511,-0.849629005 247.635952,1.89384 250.929532,4.637309 C252.576322,6.8320842 254.223113,6.8320842 256.418833,6.2833904 C266.848505,4.0886152 270.142085,5.7346966 273.984596,15.0624912 C275.631386,18.354654 277.827107,20.5494292 281.120687,22.7442044 C288.256778,26.585061 288.256778,27.6824486 287.158918,35.3641618 C290.452499,32.6206928 294.295009,33.7180804 297.58859,32.6206928 C300.33324,31.5233052 310.213982,36.4615494 311.311842,38.6563246 C314.605423,44.1432626 314.605423,46.3380378 310.762912,51.8249759 C318.996863,57.8606077 327.230815,64.4449333 336.562626,69.3831775 C342.600857,72.6753403 348.639088,77.0648907 353.579459,82.0031349 C354.677319,83.1005225 355.775179,83.6492163 356.87304,84.1979101 C363.460201,86.9413791 366.753781,91.8796233 365.655921,99.0126427 C365.106991,103.402193 367.851641,107.791744 366.753781,111.6326 C365.655921,118.76562 366.204851,125.898639 365.655921,133.031658 C365.655921,135.775127 364.558061,136.872515 362.36234,137.969903 C360.16662,139.06729 359.06876,140.164678 360.16662,142.908147 C361.26448,146.20031 360.16662,150.041166 359.61769,153.882023 C359.06876,163.209817 360.16662,173.086306 361.26448,182.4141 C361.81341,187.352345 361.81341,192.839283 361.81341,197.777527 C362.36234,203.813159 360.71555,209.84879 363.460201,215.335728 C365.106991,218.627891 364.009131,222.468748 366.753781,225.212217 C368.400571,226.309604 369.498432,227.406992 371.145222,227.955686 C380.477033,232.89393 389.808845,237.832174 400.238517,241.124337 C404.629957,242.770418 410.668188,242.770418 413.961769,247.159969 C416.157489,249.903438 417.25535,252.646907 417.25535,255.390376 C417.25535,261.974701 416.157489,268.559027 419.45107,274.594659 C420.54893,276.24074 420,278.984209 417.80428,280.630291 C415.059629,282.276372 415.059629,284.471147 414.510699,288.312004 C413.412839,298.188492 413.412839,308.613675 413.412839,318.490163 C413.412839,333.304896 413.412839,347.570934 413.412839,362.385667 C413.412839,363.483055 412.314979,366.226524 416.157489,365.129136 C417.80428,364.580442 418.35321,369.518686 416.706419,370.616074 C415.608559,371.164768 413.961769,371.713462 415.059629,372.810849 C418.35321,376.103012 415.059629,380.492562 418.35321,383.784725 C419.45107,384.882113 417.80428,384.882113 417.25535,385.430807 C403.532097,402.440314 389.259915,419.449822 371.694152,432.618473 C361.26448,440.300187 351.932669,450.176675 342.051927,458.407082 C331.622255,467.186183 322.839374,477.062671 311.860772,484.744385 C301.980031,491.877404 294.295009,500.656505 286.609988,509.984299 C284.963198,512.179075 284.414268,514.37385 283.316407,516.568625 C280.571757,521.506869 280.022827,521.506869 274.533526,520.409482 C267.397435,518.7634 260.810274,516.568625 253.674183,516.019931 C250.929532,516.019931 249.282742,514.37385 246.538091,513.825156 C228.423398,509.435606 211.406566,501.753892 192.742942,498.46173 C189.998292,497.913036 186.704711,499.010423 185.057921,497.913036 C181.764341,495.718261 177.3729,496.266954 174.079319,494.620873 C154.317836,486.93916 134.007423,483.098303 113.697009,477.062671 C101.071617,473.221815 88.4462252,469.929652 75.8208332,466.088795 C65.3911614,462.796633 54.4125596,460.053164 43.4339578,458.955776 C39.0425171,458.407082 34.6510764,456.761001 30.2596356,455.663613 C28.6128454,455.114919 26.9660551,455.114919 25.3192648,455.114919 C17.6342436,455.663613 12.6938727,451.274063 11.5960126,443.043656 C10.4981524,437.008024 11.0470825,430.972392 11.0470825,424.93676 C11.0470825,412.316803 9.40029219,400.245539 8.8513621,388.174276 C8.30243201,376.651706 7.75350192,365.67783 7.20457183,354.15526 C6.65564174,342.083996 4.45992138,330.012733 2.8131311,318.490163 C1.16634083,307.516287 -1.57830962,296.542411 1.16634083,285.019841 C1.71527092,283.922454 2.26420101,283.37376 2.8131311,282.276372 C15.9874533,271.85119 29.1617755,261.974701 43.4339578,253.195601 C59.9018605,243.319112 76.3697633,234.540011 91.7398058,223.566135 C101.071617,216.98181 112.050219,212.592259 119.73524,203.813159 C121.382031,202.167077 123.577751,201.618383 126.322402,202.167077 C129.067052,202.715771 129.615982,201.06969 129.067052,198.874914 C127.420262,192.839283 128.518122,186.803651 128.518122,181.316713 C127.969192,173.635 129.067052,165.953286 127.969192,158.271573 C126.871332,150.58986 127.420262,142.908147 126.871332,135.226434 C126.871332,129.739496 126.322402,123.703864 126.322402,118.216926 C126.322402,117.668232 125.773471,117.119538 125.224541,117.119538 C119.18631,114.924763 119.73524,110.535213 119.73524,105.048275 C119.73524,96.8178675 118.08845,88.5874605 118.08845,80.9057473 C118.08845,71.5779527 119.73524,69.3831775 128.518122,66.6397085 C129.615982,66.0910147 129.615982,65.5423209 129.615982,64.9936271 C130.164912,62.7988519 132.360632,61.7014643 134.007423,61.7014643 C143.888164,60.6040767 152.671046,57.3119139 162.002857,55.1171387 C166.394298,54.0197511 170.785739,51.8249759 176.27504,54.0197511 C177.92183,54.5684449 181.215411,50.7275883 184.508991,50.1788945 C188.900432,49.0815069 189.449362,46.8867316 187.802572,43.045875 C185.057921,36.4615494 188.351502,32.071999 196.585453,30.4259176 C199.879034,29.8772238 199.879034,28.7798362 199.879034,26.585061 C199.879034,16.1598788 214.151216,6.8320842 223.483028,11.2216346 C225.678748,12.3190222 227.874468,13.9651036 226.776608,17.2572664 C225.678748,20.5494292 226.227678,23.841592 223.483028,26.585061 C221.287307,27.6824486 222.385167,30.4259176 221.287307,33.7180804 Z M144.986025,410.670721 C147.730675,412.316803 147.181745,409.02464 148.828535,408.475946 C152.122116,407.927252 152.122116,404.086396 151.024256,402.440314 C149.377465,400.245539 146.632815,400.794233 143.888164,402.440314 C141.143514,404.086396 141.143514,406.281171 143.339234,408.475946 C144.437094,409.02464 144.437094,410.122028 144.986025,410.670721 C143.888164,410.670721 142.790304,409.573334 141.692444,409.02464 C138.947794,407.378559 136.752073,408.475946 135.105283,410.670721 C133.458493,412.865497 136.203143,413.962884 136.752073,415.060272 C138.398863,417.255047 140.045654,414.511578 141.143514,413.41419 C142.241374,411.768109 143.888164,411.219415 144.986025,410.670721 Z M134.556353,373.908237 C134.556353,374.456931 134.007423,374.456931 134.007423,375.005624 C132.909563,376.651706 132.360632,378.297787 134.556353,379.395175 C136.203143,380.492562 136.203143,377.749093 137.849933,377.749093 C137.301003,376.103012 137.301003,373.908237 134.556353,373.908237 C133.458493,368.969993 130.164912,365.129136 127.420262,361.288279 C126.871332,360.739586 123.577751,359.642198 124.126681,362.934361 C124.126681,365.67783 124.126681,367.872605 124.675611,370.616074 C125.224541,371.713462 123.028821,372.810849 125.773471,373.359543 C128.518122,373.908237 127.420262,372.262155 127.969192,370.616074 C127.969192,369.518686 127.969192,367.872605 129.067052,367.872605 C130.713842,367.872605 130.713842,368.969993 131.262772,370.616074 C131.811702,372.262155 132.360632,373.908237 134.556353,373.908237 Z M183.960061,287.76331 C186.155781,287.214616 187.253642,286.117229 188.351502,284.471147 C190.547222,281.727678 189.998292,277.886822 187.253642,276.24074 C185.057921,274.594659 181.764341,276.789434 180.11755,279.532903 C178.47076,282.276372 180.11755,284.471147 182.862201,285.568535 C185.057921,285.568535 184.508991,286.665923 183.960061,287.76331 C181.764341,289.409392 179.56862,290.506779 177.3729,292.152861 C175.72611,293.250248 174.628249,295.445023 176.82397,297.091105 C177.92183,298.188492 180.11755,299.28588 180.66648,297.639799 C182.313271,294.347636 185.057921,291.604167 183.960061,287.76331 Z M318.447933,283.922454 C315.703283,287.76331 312.409702,291.604167 312.409702,297.091105 C312.958632,302.578043 311.860772,304.224124 306.920401,303.126737 C304.724681,302.578043 304.724681,304.224124 303.626821,304.772818 C303.077891,304.772818 303.077891,305.870206 303.626821,306.418899 C304.724681,306.967593 305.822541,307.516287 306.920401,307.516287 C316.801143,305.870206 319.545793,298.188492 323.937234,291.055473 C324.486164,289.958085 325.035094,288.860698 323.937234,287.76331 C320.643654,289.409392 321.192584,293.250248 318.996863,295.445023 C317.899003,297.091105 316.801143,298.737186 314.605423,297.639799 C312.409702,296.542411 314.605423,294.89633 315.154353,293.250248 C316.801143,289.958085 320.094724,287.76331 318.447933,283.922454 C321.192584,283.37376 324.486164,281.727678 321.741514,278.435516 C320.094724,276.24074 318.996863,274.045965 317.899003,271.85119 C317.350073,270.753802 317.350073,268.559027 315.154353,269.656415 C313.507562,270.205108 312.409702,271.85119 312.958632,273.497271 C313.507562,275.143353 314.056493,277.886822 316.252213,278.435516 C320.643654,278.984209 318.996863,281.727678 318.447933,283.922454 Z M134.556353,469.380958 C137.849933,472.673121 137.849933,479.80614 145.534955,479.80614 C144.437094,480.354834 143.888164,480.354834 143.339234,480.903528 C142.790304,482.000916 143.888164,482.000916 144.437094,482.000916 C147.181745,482.549609 150.475325,483.098303 153.768906,483.646997 C154.317836,479.80614 154.317836,475.965284 154.317836,472.673121 C154.317836,468.832264 154.317836,464.442714 153.768906,460.601857 C153.219976,457.309694 150.475325,453.468838 153.768906,450.176675 C153.768906,450.176675 153.219976,449.627981 152.671046,449.079287 C152.122116,436.45933 153.219976,423.839373 151.024256,410.670721 C144.986025,414.511578 140.594584,418.352435 136.203143,422.741985 C135.105283,421.095904 136.752073,419.998516 136.752073,418.901128 C137.849933,416.157659 135.654213,416.157659 134.556353,415.060272 C133.458493,413.962884 132.360632,413.962884 131.262772,415.060272 C129.067052,416.706353 131.262772,417.255047 131.811702,418.352435 C132.360632,419.449822 132.909563,420.54721 132.360632,421.644597 C128.518122,419.449822 126.322402,416.157659 123.577751,412.316803 C123.577751,419.449822 123.577751,426.034148 125.224541,432.06978 C125.224541,434.264555 125.224541,435.910636 125.224541,438.105411 C123.577751,443.043656 123.577751,447.9819 126.322402,452.37145 C126.871332,452.920144 126.871332,452.920144 127.420262,453.468838 C126.871332,460.601857 130.164912,464.991408 134.556353,469.380958 Z M272.886736,396.953376 C267.946365,397.50207 263.554924,396.953376 259.163483,394.209907 C253.674183,390.917745 246.538091,389.271663 240.49986,387.625582 C227.325538,384.333419 214.700146,379.395175 201.525824,376.103012 C188.351502,372.810849 174.628249,369.518686 162.002857,364.031748 C159.258207,362.934361 157.062487,364.031748 157.062487,367.323911 C157.062487,371.713462 157.062487,376.103012 156.513556,380.492562 C155.415696,395.855989 155.964626,411.219415 156.513556,426.582842 C157.062487,443.592349 157.611417,460.601857 158.709277,477.611365 C158.709277,483.646997 161.453927,485.841772 165.845368,487.487854 C168.590018,488.585241 171.334669,489.133935 174.628249,490.231323 C191.096152,494.072179 208.112985,496.266954 224.031958,502.85128 C232.265909,506.143443 241.04879,507.789524 249.282742,509.984299 C256.418833,512.179075 264.103854,513.276462 271.239945,514.922544 C272.886736,515.471237 275.082456,516.019931 276.180316,513.276462 C277.278176,511.081687 276.729246,509.435606 275.082456,508.338218 C273.435666,506.692137 273.435666,505.046055 274.533526,503.399974 C277.278176,499.559117 276.180316,495.718261 275.631386,491.877404 C274.533526,482.000916 273.984596,472.124427 273.984596,462.247939 C273.984596,450.725369 274.533526,439.202799 275.082456,427.680229 C275.082456,417.803741 273.435666,407.378559 272.886736,396.953376 Z M249.282742,161.563736 C242.146651,162.11243 235.55949,162.661124 228.423398,163.758511 C223.483028,164.855899 221.836237,166.50198 221.836237,171.988918 C221.836237,194.485364 222.934097,217.530504 225.129818,240.026949 C225.678748,246.062581 226.227678,251.549519 227.325538,257.585151 C227.874468,259.779926 230.070189,261.974701 227.325538,264.71817 C226.776608,265.266864 226.776608,267.461639 228.972328,266.912946 C232.814839,265.815558 236.65735,265.266864 240.49986,264.71817 C255.320973,260.877314 270.142085,257.585151 284.414268,252.646907 C294.843939,249.354744 306.371471,247.708663 316.801143,244.4165 C327.230815,241.124337 337.660486,238.380868 348.090158,236.186093 C356.87304,234.540011 360.71555,229.601767 359.61769,221.920054 C357.9709,210.946178 357.9709,199.972302 356.87304,189.54712 C355.775179,174.732387 354.677319,159.917655 354.677319,145.102922 C354.677319,141.810759 352.481599,140.164678 349.188018,141.262065 C340.954067,144.005534 332.720116,144.554228 324.486164,146.20031 C307.469331,150.041166 289.903569,154.430717 272.337806,157.722879 C265.201714,158.271573 257.516693,159.917655 249.282742,161.563736 Z M119.18631,358.54481 C119.18631,356.350035 119.73524,354.15526 116.44166,353.606566 C111.501289,352.509179 106.011988,351.411791 101.071617,349.217016 C87.8972952,344.278772 73.6251128,342.083996 59.9018605,338.791834 C44.531818,334.402283 29.1617755,330.561427 13.7917329,326.171876 C11.5960126,325.623182 9.40029219,324.525795 9.94922228,328.366651 C11.5960126,337.694446 9.94922228,347.022241 10.4981524,356.350035 C11.0470825,370.06738 12.6938727,383.784725 12.6938727,397.50207 C12.6938727,404.086396 13.7917329,411.219415 14.340663,417.803741 C14.8895931,426.034148 15.4385232,434.264555 16.5363834,442.494962 C17.0853135,444.689737 17.6342436,447.433206 20.9278241,447.9819 C23.6724745,448.530594 25.8681949,449.627981 28.6128454,450.725369 C37.3957268,454.017532 46.1786083,455.663613 54.9614897,457.309694 C63.7443712,459.50447 73.0761827,461.150551 81.3101341,463.89402 C92.2887359,467.186183 103.267338,469.929652 113.697009,474.319202 C116.99059,475.41659 118.63738,473.770509 118.08845,470.478346 C117.53952,465.540102 117.53952,460.053164 118.08845,455.663613 C119.18631,447.433206 118.08845,439.202799 118.63738,430.972392 C119.18631,424.93676 118.08845,418.901128 118.08845,412.865497 C118.08845,405.183783 118.08845,396.953376 119.73524,389.271663 C122.479891,378.846481 117.53952,368.969993 119.18631,358.54481 Z M130.713842,119.863007 C130.713842,126.996027 130.164912,133.580352 130.713842,139.615984 C132.360632,156.076798 131.811702,171.988918 131.262772,188.449732 C130.713842,201.618383 134.007423,212.592259 146.083885,219.725279 C154.866766,225.212217 163.100718,231.796542 171.883599,237.28348 C180.11755,242.770418 187.253642,248.80605 194.938663,254.292988 C197.134383,255.93907 200.976894,255.93907 201.525824,257.585151 C204.819404,263.072089 211.406566,264.169477 215.249076,268.010333 C217.993727,270.753802 220.189447,268.559027 222.385167,267.461639 C224.580888,266.912946 222.385167,264.71817 222.934097,263.072089 C223.483028,260.32862 221.836237,258.133845 221.836237,255.390376 C222.385167,245.513887 220.738377,235.637399 219.640517,226.309604 C217.993727,210.397484 218.542657,193.93667 216.895866,177.475856 C216.346936,173.635 217.444797,170.891531 213.053356,168.148062 C203.172614,162.11243 193.840803,156.625492 183.411131,151.687248 C165.845368,142.359453 148.279605,131.934271 130.713842,119.863007 Z M282.218547,507.24083 C287.707848,501.205199 291.550359,495.718261 297.03966,491.32871 C311.311842,479.257447 327.230815,469.380958 337.660486,453.468838 C338.758347,451.822756 339.856207,450.176675 339.856207,448.530594 C340.954067,442.494962 339.307277,437.008024 339.856207,430.972392 C340.405137,420.54721 338.209416,410.122028 338.209416,399.148152 C338.209416,392.563826 337.111556,385.430807 337.111556,378.846481 C337.111556,373.359543 336.562626,367.872605 337.111556,361.836973 C337.660486,356.898729 337.660486,351.411791 336.013696,345.924853 C333.817976,348.119628 331.073325,349.217016 329.426535,350.863097 C321.741514,359.642198 312.958632,365.67783 305.273611,372.810849 C298.68645,378.297787 292.648219,383.784725 285.512128,388.722969 C283.316407,390.369051 281.120687,392.015132 280.022827,395.855989 C277.827107,404.086396 279.473897,412.316803 279.473897,419.998516 C278.924967,432.06978 280.022827,443.592349 279.473897,455.663613 C279.473897,460.053164 281.120687,463.89402 280.022827,468.283571 C278.376037,474.319202 278.376037,480.354834 280.571757,486.390466 C281.669617,489.133935 280.022827,492.426098 282.218547,495.169567 C277.278176,499.010423 281.669617,502.85128 282.218547,507.24083 Z M329.975465,303.67543 C326.681885,304.224124 325.035094,299.834574 321.741514,303.126737 C313.507562,313.003225 306.920401,313.003225 296.49073,309.711062 C285.512128,306.418899 275.631386,302.029349 266.848505,293.798942 C259.712414,287.214616 253.674183,280.081597 249.282742,271.302496 C247.087021,266.912946 245.440231,266.364252 240.49986,268.010333 C235.010559,270.205108 229.521259,271.85119 224.031958,272.948577 C217.993727,274.045965 215.249076,276.24074 214.151216,282.276372 C212.504426,292.701554 208.112985,302.029349 204.819404,311.357144 C203.721544,314.100613 203.172614,318.490163 200.427964,317.941469 C197.683313,317.941469 197.134383,313.551919 196.036523,310.80845 C194.389733,306.418899 190.547222,305.321512 187.253642,308.613675 C185.606851,310.259756 183.960061,311.905837 181.764341,313.551919 C178.47076,316.844082 175.72611,316.295388 173.530389,311.905837 C170.785739,315.746694 168.041088,319.038857 165.296438,322.33102 C163.649648,324.525795 164.747508,325.074489 166.943228,325.623182 C175.17718,327.269264 183.960061,328.915345 191.645082,331.11012 C199.330104,333.304896 207.015125,334.950977 215.249076,337.145752 C228.423398,340.986609 241.597721,342.63269 254.772043,346.473547 C261.908134,348.668322 268.495295,347.022241 275.631386,349.217016 C277.278176,349.76571 277.827107,348.119628 278.924967,347.570934 C280.571757,346.473547 281.669617,344.827465 282.767477,343.730078 C289.354638,338.24314 296.49073,333.304896 303.077891,327.269264 C307.469331,323.428407 311.311842,319.038857 316.252213,315.198 C320.643654,311.357144 326.681885,309.162368 329.975465,303.67543 Z M114.24594,235.637399 C108.756639,233.442624 102.718408,232.345236 97.7780368,229.053073 C94.4844562,226.858298 92.2887359,227.955686 90.0930155,229.053073 C84.0547845,233.442624 77.4676234,237.28348 70.8804623,241.124337 C59.3529304,247.708663 48.3743286,254.841682 36.8467967,261.974701 C29.1617755,266.364252 22.5746144,272.399884 15.4385232,278.984209 C16.5363834,278.984209 17.6342436,278.984209 18.1831736,279.532903 C25.8681949,286.665923 36.8467967,288.312004 46.1786083,290.506779 C59.9018605,294.347636 73.6251128,298.737186 87.3483651,303.126737 C97.2291067,306.418899 107.109848,308.064981 116.99059,311.905837 C121.930961,313.551919 125.773471,313.551919 129.615982,308.613675 C134.556353,303.126737 138.947794,297.091105 144.986025,291.604167 C152.122116,285.019841 159.258207,277.886822 166.943228,270.753802 C160.904997,272.948577 154.866766,272.399884 149.377465,271.85119 C140.045654,270.753802 130.164912,271.302496 121.382031,267.461639 C117.53952,265.815558 114.24594,264.169477 112.050219,261.426008 C105.463058,252.646907 107.109848,243.319112 114.24594,235.637399 Z M360.71555,106.694356 C360.71555,102.304806 360.71555,99.5613365 360.71555,96.2691737 C360.16662,92.4283171 359.06876,90.7822357 354.677319,91.8796233 C350.285878,92.9770109 345.894438,94.0743985 341.502997,95.1717861 C329.975465,98.4639489 317.899003,100.658724 305.822541,103.950887 C292.648219,107.24305 280.022827,110.535213 266.299575,112.181294 C251.478462,113.827375 237.20628,118.216926 222.934097,121.509089 C221.836237,121.509089 220.189447,122.057782 220.189447,123.703864 C220.189447,134.67774 219.640517,146.20031 222.385167,157.174186 C222.934097,158.820267 224.031958,160.466348 227.325538,159.917655 C233.912699,157.722879 241.04879,157.722879 248.184882,156.625492 C260.810274,154.430717 273.435666,152.235941 286.061058,150.041166 C297.03966,147.846391 307.469331,144.005534 318.447933,141.810759 C331.073325,139.615984 343.149787,135.775127 355.775179,134.67774 C356.87304,134.67774 359.06876,134.129046 359.06876,131.934271 C359.06876,123.15517 361.26448,114.376069 360.71555,106.694356 Z M297.03966,59.5066891 C297.58859,61.1527705 298.68645,62.7988519 299.23538,64.4449333 C301.4311,68.8344837 300.33324,73.2240341 296.49073,75.4188093 C287.707848,80.9057473 278.924967,84.7466039 268.495295,81.4544411 C266.299575,80.9057473 265.201714,80.9057473 265.201714,83.6492163 C264.652784,86.9413791 263.005994,89.1361543 259.712414,90.7822357 C246.538091,97.3665613 234.461629,96.2691737 223.483028,85.8439915 C222.385167,84.7466039 221.287307,84.7466039 220.189447,85.2952977 C214.700146,89.6848481 208.112985,90.2335419 200.976894,89.1361543 C194.389733,88.0387667 188.900432,82.5518287 189.449362,75.9675031 C189.449362,74.3214217 189.449362,72.6753403 187.802572,73.7727279 C185.057921,74.8701155 182.862201,73.7727279 180.66648,73.7727279 C174.628249,73.7727279 171.334669,69.3831775 172.981459,63.3475457 C173.530389,61.7014643 174.079319,60.0553829 173.530389,59.5066891 C172.432529,58.4093015 170.236809,58.9579953 169.138949,59.5066891 C160.904997,62.7988519 152.122116,63.8962395 143.888164,66.6397085 C140.045654,68.2857899 136.203143,64.4449333 133.458493,67.7370961 C134.556353,69.3831775 136.203143,70.4805651 137.301003,72.1266465 C139.496724,74.8701155 143.888164,74.3214217 146.083885,76.5161969 C150.475325,80.3570535 155.415696,82.0031349 159.807137,85.8439915 C168.041088,92.4283171 177.3729,97.3665613 186.155781,102.853499 C193.291873,107.24305 199.879034,112.729988 207.015125,117.119538 C209.759775,118.76562 213.053356,122.057782 216.346936,120.411701 C220.189447,118.216926 224.580888,118.216926 228.972328,117.119538 C248.184882,111.6326 268.495295,109.437825 287.707848,105.048275 C303.077891,101.756112 318.447933,97.3665613 333.817976,93.5257047 C339.856207,91.8796233 345.894438,91.8796233 350.834809,87.4900729 C349.188018,85.2952977 346.443368,83.6492163 344.247647,82.0031349 C337.660486,77.6135845 331.073325,73.7727279 324.486164,68.8344837 C315.703283,62.7988519 309.116122,54.0197511 297.03966,59.5066891 Z M407.923538,284.471147 C399.689587,289.958085 393.651356,297.091105 386.515264,303.126737 C379.928103,308.613675 372.792012,313.551919 366.204851,320.136244 C364.558061,321.782326 363.460201,323.428407 363.460201,326.171876 C362.911271,334.402283 364.009131,342.63269 364.558061,350.314403 C366.204851,365.67783 365.106991,380.492562 367.302711,395.855989 C368.400571,404.63509 371.145222,413.962884 369.498432,423.290679 C369.498432,424.93676 370.047362,427.131535 372.792012,424.93676 C387.613125,413.41419 399.689587,399.696845 410.119258,384.333419 C411.217119,383.236031 412.314979,381.58995 410.119258,379.943869 C409.021398,378.846481 409.021398,377.749093 409.021398,376.103012 C409.021398,369.518686 408.472468,362.934361 409.021398,356.898729 C409.570328,351.411791 408.472468,345.376159 408.472468,339.889221 C408.472468,333.853589 410.668188,328.366651 406.276748,322.33102 C405.727818,321.782326 404.629957,318.490163 406.276748,317.941469 C408.472468,316.844082 407.374608,315.746694 406.825678,315.198 C405.178888,314.100613 405.727818,313.003225 406.276748,311.357144 C406.825678,306.418899 406.276748,302.029349 406.825678,297.091105 C407.923538,293.798942 407.923538,289.409392 407.923538,284.471147 Z M275.082456,366.226524 C276.180316,363.483055 275.631386,361.288279 276.180316,358.54481 C276.729246,356.898729 276.180316,354.15526 273.984596,354.15526 C265.750645,354.703954 258.065623,351.960485 249.831672,350.314403 C233.912699,346.473547 217.993727,343.181384 202.074754,339.889221 C190.547222,337.694446 180.66648,332.207508 169.138949,330.012733 C164.198578,328.915345 160.356067,330.012733 159.258207,334.950977 C158.160347,339.889221 157.062487,344.827465 155.964626,349.217016 C155.415696,351.960485 154.866766,354.703954 156.513556,356.898729 C158.160347,358.54481 162.551787,355.252648 162.002857,357.447423 C161.453927,360.739586 163.100718,361.288279 164.747508,361.836973 C170.785739,364.031748 176.82397,366.226524 182.862201,367.323911 C192.194012,369.518686 201.525824,372.262155 210.857635,375.005624 C219.091587,377.2004 227.874468,379.395175 236.10842,382.138644 C245.440231,385.430807 254.772043,388.722969 264.652784,389.820357 C271.239945,390.917745 272.337806,389.820357 273.435666,382.687338 C275.631386,377.749093 275.082456,371.713462 275.082456,366.226524 Z M119.73524,319.038857 C112.050219,315.746694 105.463058,314.649306 98.3269669,311.905837 C82.9569243,306.418899 67.0379517,303.126737 52.2168393,297.639799 C39.0425171,293.250248 25.3192648,291.055473 13.2428028,283.37376 C12.6938727,282.825066 12.1449426,283.37376 11.5960126,283.37376 C4.45992138,286.665923 2.26420101,291.604167 5.00885147,298.737186 C6.10671165,301.480655 6.10671165,303.67543 5.55778156,306.418899 C3.91099129,311.905837 7.20457183,319.038857 11.5960126,320.136244 C18.1831736,321.782326 24.7703347,323.977101 31.3574958,326.171876 C46.1786083,331.11012 61.5486508,335.499671 76.9186933,339.340527 C89.5440854,342.63269 102.718408,345.924853 114.79487,350.314403 C118.08845,351.411791 119.18631,350.863097 118.63738,347.570934 C118.63738,343.181384 118.08845,338.791834 118.08845,334.402283 C119.18631,328.915345 113.697009,323.428407 119.73524,319.038857 Z M215.249076,140.713372 C215.798006,137.421209 214.151216,134.129046 214.700146,130.836883 C215.249076,126.996027 213.602286,124.801251 210.308705,123.15517 C206.466195,121.509089 203.172614,119.863007 199.330104,118.216926 C189.998292,113.278682 181.764341,107.24305 172.981459,100.658724 C164.198578,94.0743985 154.317836,88.5874605 144.986025,82.0031349 C140.594584,78.7109721 135.105283,77.0648907 130.713842,73.2240341 C127.969192,70.4805651 125.224541,71.0292589 123.577751,74.8701155 C122.479891,77.0648907 121.930961,79.8083597 122.479891,82.0031349 C123.028821,90.2335419 124.126681,98.4639489 124.675611,106.145662 C124.675611,108.889131 126.322402,110.535213 128.518122,111.6326 C136.752073,116.570844 145.534955,122.057782 153.768906,126.996027 C157.062487,128.642108 159.258207,131.385577 162.551787,133.031658 C172.432529,137.969903 181.764341,144.005534 192.194012,148.943779 C199.330104,152.235941 206.466195,156.076798 212.504426,161.563736 C213.602286,162.661124 216.346936,164.307205 217.444797,163.209817 C219.091587,162.11243 217.993727,159.368961 217.993727,157.174186 C217.993727,156.625492 217.444797,155.528104 217.444797,154.97941 C215.798006,151.138554 215.249076,146.20031 215.249076,140.713372 Z M302.528961,251.549519 C310.213982,253.744294 314.056493,259.231232 318.996863,264.71817 C321.741514,268.010333 323.388304,272.399884 328.877605,271.85119 C329.426535,271.85119 330.524395,272.399884 331.073325,272.948577 C334.915836,275.143353 338.758347,277.338128 342.051927,279.532903 C349.736948,284.471147 354.128389,283.922454 360.71555,277.338128 C361.26448,276.789434 361.81341,276.24074 362.36234,275.692046 C373.889872,265.266864 387.064195,256.487763 398.591726,246.062581 C388.710985,242.221725 378.830243,238.380868 368.949502,233.991318 C365.655921,232.345236 362.911271,229.601767 361.26448,235.088705 C360.71555,236.186093 359.61769,236.186093 358.51983,236.734787 C348.639088,240.026949 338.209416,241.673031 328.328675,244.4165 C319.545793,247.159969 311.311842,249.354744 302.528961,251.549519 Z M278.924967,385.430807 C279.473897,385.430807 279.473897,385.9795 280.022827,385.9795 C287.158918,380.492562 294.843939,376.103012 301.4311,370.06738 C311.311842,361.288279 322.839374,353.606566 331.622255,343.730078 C333.269046,342.083996 334.366906,340.437915 334.366906,338.24314 C334.366906,330.561427 334.915836,322.879713 334.915836,314.649306 C334.915836,314.100613 334.366906,313.003225 333.817976,312.454531 C332.720116,311.357144 332.720116,313.003225 332.171185,313.551919 C320.643654,321.782326 310.762912,331.658814 299.78431,339.889221 C295.9418,342.63269 289.903569,344.827465 289.903569,350.863097 C289.903569,351.411791 288.805708,351.411791 287.707848,351.960485 C283.316407,352.509179 281.669617,355.252648 282.218547,359.642198 C282.218547,361.288279 282.218547,362.385667 281.669617,364.031748 C279.473897,371.164768 280.571757,378.297787 278.924967,385.430807 Z M362.36234,301.480655 C362.911271,305.870206 362.36234,309.711062 363.460201,314.100613 C364.009131,316.844082 364.558061,315.746694 365.655921,315.198 C368.949502,312.454531 371.694152,309.711062 374.987733,306.967593 C387.613125,297.091105 398.591726,285.019841 411.766049,276.24074 C412.863909,275.692046 413.412839,274.045965 413.412839,272.399884 C413.412839,269.656415 412.863909,266.912946 412.314979,263.620783 C412.314979,261.426008 412.314979,259.779926 412.314979,257.585151 C412.314979,255.93907 410.119258,253.195601 410.119258,253.744294 C407.374608,255.93907 404.629957,254.292988 401.885307,256.487763 C393.102426,263.072089 385.417404,270.753802 376.085593,276.789434 C371.694152,279.532903 367.851641,282.825066 364.558061,286.665923 C359.61769,291.055473 364.009131,297.091105 362.36234,301.480655 Z M192.194012,257.036457 C189.998292,255.93907 188.900432,254.841682 187.253642,253.744294 C183.960061,251.000825 179.56862,246.062581 177.3729,247.159969 C172.432529,249.354744 169.687879,248.257356 167.492158,243.867806 C167.492158,243.319112 166.394298,243.319112 165.845368,243.319112 C157.062487,239.478256 149.377465,242.221725 142.241374,246.611275 C136.752073,249.903438 137.301003,252.098213 141.143514,257.036457 C142.790304,259.231232 144.986025,260.877314 148.279605,261.426008 C151.573186,262.523395 154.866766,261.974701 158.160347,262.523395 C166.394298,263.620783 174.079319,261.974701 181.215411,258.133845 C182.862201,257.585151 184.508991,256.487763 185.057921,257.585151 C187.802572,263.072089 189.449362,258.133845 192.194012,257.036457 Z M287.158918,280.081597 C296.49073,280.081597 299.23538,277.886822 297.58859,270.753802 C296.49073,266.912946 294.843939,263.620783 292.648219,260.32862 C289.354638,256.487763 285.512128,254.841682 280.571757,257.036457 C276.180316,259.231232 271.788876,260.877314 267.397435,261.426008 C263.005994,261.974701 264.103854,263.620783 265.201714,265.815558 C270.142085,274.045965 277.278176,278.984209 287.158918,280.081597 Z M127.969192,333.853589 C129.615982,334.402283 130.713842,334.402283 131.811702,334.950977 C135.105283,334.950977 137.301003,336.048365 135.105283,339.889221 C134.007423,341.535303 135.105283,343.730078 136.752073,344.827465 C138.947794,347.022241 138.947794,349.217016 136.203143,350.863097 C133.458493,352.509179 135.654213,353.606566 136.203143,354.703954 C136.752073,355.801341 137.849933,356.350035 139.496724,355.252648 C143.339234,353.057872 146.083885,349.76571 149.926395,347.022241 C153.768906,344.827465 151.573186,340.986609 152.671046,338.24314 C153.219976,337.694446 152.122116,337.145752 150.475325,337.694446 C147.181745,339.340527 144.986025,342.63269 142.241374,344.827465 C141.143514,345.376159 140.594584,347.022241 139.496724,345.924853 C138.398863,344.827465 138.947794,343.730078 139.496724,342.63269 C140.594584,340.437915 142.241374,338.24314 144.437094,337.694446 C148.828535,336.048365 151.573186,332.207508 154.866766,328.366651 C153.768906,328.366651 152.122116,328.915345 151.573186,328.366651 C147.181745,325.074489 142.790304,325.074489 138.947794,329.464039 C138.398863,330.012733 137.849933,330.561427 137.849933,331.11012 C136.752073,331.658814 136.203143,331.658814 135.105283,331.11012 C134.556353,330.012733 135.105283,329.464039 135.654213,328.915345 C136.752073,327.269264 138.398863,325.623182 140.045654,323.977101 C138.398863,323.977101 137.849933,323.977101 136.752073,323.977101 C127.969192,322.33102 125.224541,324.525795 125.773471,333.304896 C125.773471,335.499671 125.773471,337.145752 125.224541,339.340527 C124.675611,340.986609 124.126681,342.63269 126.322402,344.278772 C128.518122,340.437915 126.871332,337.145752 127.969192,333.853589 Z M280.571757,77.6135845 C284.963198,77.0648907 289.903569,74.3214217 294.295009,70.4805651 C295.392869,69.3831775 295.392869,67.7370961 294.843939,66.6397085 C293.197149,62.7988519 289.354638,60.0553829 286.061058,58.4093015 C284.963198,57.8606077 284.414268,58.4093015 284.414268,58.9579953 C283.865338,59.5066891 283.316407,60.0553829 284.414268,61.1527705 C284.963198,61.7014643 286.061058,61.7014643 286.609988,62.2501581 C287.707848,63.3475457 288.256778,64.4449333 287.707848,66.0910147 C286.609988,68.2857899 284.963198,69.3831775 282.767477,69.9318713 C281.120687,69.9318713 279.473897,68.8344837 279.473897,66.6397085 C279.473897,63.8962395 279.473897,61.7014643 275.082456,62.7988519 C272.886736,63.3475457 270.691015,60.0553829 267.946365,61.1527705 C267.397435,61.1527705 266.848505,61.7014643 266.848505,62.2501581 C266.848505,66.0910147 263.005994,64.4449333 261.359204,65.5423209 C260.261344,66.0910147 260.810274,63.3475457 260.261344,62.2501581 C259.712414,61.1527705 259.712414,60.6040767 258.614553,61.1527705 C258.065623,61.7014643 256.967763,62.2501581 258.614553,62.7988519 C260.261344,63.3475457 259.712414,64.9936271 259.712414,66.0910147 C259.712414,67.7370961 260.810274,68.8344837 261.908134,67.7370961 C265.750645,65.5423209 266.299575,69.3831775 266.299575,70.4805651 C266.299575,74.3214217 268.495295,75.4188093 271.239945,75.9675031 C274.533526,77.6135845 277.278176,77.6135845 280.571757,77.6135845 Z M165.845368,276.789434 C162.551787,280.081597 157.062487,281.178985 157.062487,287.76331 C157.062487,288.860698 157.062487,289.958085 157.611417,290.506779 C158.709277,291.604167 159.807137,289.958085 160.356067,289.409392 C161.453927,287.76331 162.002857,285.568535 164.198578,287.76331 C165.845368,289.409392 163.649648,291.055473 162.551787,291.604167 C157.062487,294.347636 159.258207,298.188492 161.453927,300.931961 C163.100718,303.126737 163.649648,306.967593 168.041088,306.418899 C166.943228,309.162368 163.100718,309.711062 164.747508,313.551919 C164.747508,314.100613 163.649648,314.100613 163.100718,314.100613 C157.611417,313.551919 155.415696,317.941469 152.122116,320.684938 C156.513556,323.977101 159.807137,322.33102 162.002857,319.038857 C166.943228,313.003225 171.883599,307.516287 176.82397,301.480655 C171.334669,297.091105 171.883599,296.542411 168.041088,290.506779 C165.296438,286.117229 166.394298,281.727678 165.296438,277.338128 C166.394298,277.338128 165.845368,277.338128 165.845368,276.789434 Z M247.635952,90.7822357 C249.282742,90.2335419 252.576322,89.6848481 255.320973,88.5874605 C259.712414,86.9413791 260.810274,82.5518287 261.908134,78.7109721 C262.457064,75.4188093 253.125252,71.0292589 249.831672,72.6753403 C249.831672,72.6753403 249.831672,72.6753403 249.831672,72.6753403 C248.733812,75.9675031 243.793441,77.6135845 246.538091,82.5518287 C247.087021,83.6492163 246.538091,85.2952977 245.440231,86.3926853 C244.342371,87.4900729 243.793441,87.4900729 243.244511,86.3926853 C241.04879,81.4544411 236.10842,80.3570535 232.265909,78.1622783 C229.521259,76.5161969 229.521259,80.3570535 227.874468,81.4544411 C226.776608,82.0031349 227.325538,83.1005225 228.423398,84.1979101 C233.912699,88.0387667 239.402,90.7822357 247.635952,90.7822357 Z M364.009131,406.281171 C360.16662,408.475946 359.06876,411.768109 356.324109,413.962884 C353.030529,416.706353 355.226249,418.352435 357.42197,419.998516 C358.51983,421.095904 361.81341,420.54721 359.61769,423.290679 C357.42197,426.034148 357.42197,422.741985 356.324109,422.193291 C354.677319,421.644597 353.030529,420.54721 351.383739,421.095904 C350.834809,421.095904 349.736948,422.193291 350.834809,423.290679 C353.030529,425.485454 353.030529,429.326311 356.87304,430.423698 C357.9709,430.423698 359.61769,431.521086 358.51983,433.167167 C357.9709,434.264555 356.87304,433.167167 355.775179,432.618473 C353.030529,431.521086 351.383739,427.680229 347.541228,427.131535 C349.188018,429.326311 350.285878,431.521086 351.932669,433.167167 C353.030529,434.264555 354.677319,437.556718 356.324109,436.45933 C359.61769,434.264555 364.558061,433.715861 365.106991,428.777617 C366.204851,421.644597 364.558061,414.511578 364.009131,406.281171 Z M289.903569,38.1076308 C291.550359,39.7537122 293.746079,40.8510998 295.392869,42.4971812 C295.9418,43.045875 298.13752,41.9484874 297.58859,44.1432626 C297.03966,45.789344 294.843939,45.2406502 293.746079,44.6919564 C292.099289,44.1432626 289.903569,44.1432626 289.903569,45.789344 C289.903569,46.8867316 289.354638,48.532813 288.805708,49.6302007 C287.158918,52.3736697 288.805708,54.5684449 291.550359,54.0197511 C295.9418,53.4710573 300.88217,55.6658325 304.724681,50.7275883 C307.469331,46.8867316 309.116122,45.2406502 306.371471,41.3997936 C304.175751,36.4615494 295.392869,33.7180804 289.903569,38.1076308 Z M253.125252,18.354654 C255.320973,16.7085726 255.869903,16.7085726 258.065623,17.2572664 C259.163483,17.8059602 259.712414,18.9033478 259.163483,19.4520416 C257.516693,21.098123 255.869903,21.6468168 253.674183,22.1955106 C252.576322,22.1955106 251.478462,22.1955106 251.478462,23.2928982 C251.478462,24.3902858 252.027392,26.0363672 252.027392,26.0363672 C255.320973,25.4876734 256.967763,29.32853 260.261344,28.7798362 C265.201714,28.7798362 269.593155,24.3902858 269.593155,19.4520416 C270.142085,15.0624912 267.397435,11.2216346 263.554924,10.6729408 C257.516693,9.57555321 254.772043,11.2216346 253.125252,18.354654 Z M148.828535,294.347636 C144.437094,297.639799 145.534955,300.383268 146.083885,303.126737 C146.083885,304.224124 147.730675,304.772818 146.632815,305.870206 C145.534955,306.418899 144.986025,305.870206 143.888164,305.321512 C143.339234,304.772818 142.241374,304.772818 141.692444,303.67543 C141.143514,302.029349 140.045654,302.578043 139.496724,303.126737 C138.947794,303.67543 138.947794,304.772818 139.496724,305.321512 C140.594584,306.967593 142.241374,308.613675 142.241374,309.711062 C141.143514,314.100613 143.888164,316.844082 146.083885,319.038857 C148.828535,321.782326 149.377465,317.392775 151.024256,316.295388 C151.573186,316.295388 151.573186,315.746694 152.122116,315.746694 C157.611417,313.003225 157.611417,312.454531 154.866766,306.967593 C152.122116,302.578043 147.730675,300.383268 148.828535,294.347636 Z M338.758347,332.207508 C338.758347,333.304896 337.660486,334.950977 339.856207,335.499671 C341.502997,336.048365 342.600857,334.950977 343.149787,333.304896 C343.698717,330.561427 345.345508,329.464039 348.090158,328.915345 C350.285878,328.366651 353.030529,326.171876 349.188018,323.428407 C347.541228,322.33102 347.541228,321.233632 346.992298,319.038857 C346.992298,317.392775 346.992298,315.198 344.247647,315.746694 C342.600857,315.746694 342.051927,315.198 342.051927,313.551919 C342.051927,311.905837 342.600857,310.80845 344.247647,310.80845 C348.090158,311.357144 345.345508,308.613675 345.894438,306.967593 C346.992298,304.224124 344.247647,305.321512 343.698717,305.321512 C341.502997,304.772818 340.954067,306.418899 340.405137,308.064981 C339.856207,316.844082 339.307277,324.525795 338.758347,332.207508 Z M200.976894,72.1266465 C202.623684,73.7727279 203.721544,74.8701155 204.819404,75.4188093 C205.368335,75.9675031 205.368335,76.5161969 204.819404,77.0648907 C203.721544,78.1622783 203.721544,78.7109721 205.368335,79.8083597 C207.564055,81.4544411 210.857635,81.4544411 211.406566,84.7466039 C211.406566,85.2952977 212.504426,85.2952977 213.053356,85.2952977 C215.249076,84.1979101 217.444797,83.1005225 219.091587,81.4544411 C221.287307,79.2596659 222.385167,75.9675031 221.287307,73.2240341 C220.189447,69.9318713 216.346936,71.5779527 215.249076,72.1266465 C210.857635,73.7727279 207.564055,73.2240341 203.172614,72.1266465 C203.172614,71.5779527 202.623684,71.5779527 200.976894,72.1266465 Z M137.301003,243.867806 C141.692444,240.575643 146.632815,240.026949 151.573186,237.832174 C156.513556,235.637399 161.453927,239.478256 166.943228,237.832174 C164.747508,236.734787 163.100718,235.637399 161.453927,234.540011 C158.160347,232.345236 155.415696,227.406992 150.475325,231.796542 C149.926395,232.345236 148.828535,231.247849 148.279605,231.247849 C146.083885,230.699155 144.437094,230.150461 142.241374,231.247849 C143.888164,233.442624 148.279605,233.991318 145.534955,237.28348 C142.790304,240.575643 141.692444,237.832174 140.594584,235.637399 C140.045654,235.088705 139.496724,235.637399 138.947794,235.637399 C138.398863,236.186093 137.849933,236.186093 138.398863,237.28348 C140.045654,238.929562 138.398863,241.124337 137.301003,243.867806 Z M231.168049,16.1598788 C233.363769,15.611185 234.461629,10.6729408 236.65735,16.7085726 C237.20628,18.9033478 239.95093,20.0007354 242.146651,16.7085726 C242.695581,15.611185 242.695581,12.867716 245.440231,12.867716 C246.538091,12.867716 247.087021,16.1598788 248.184882,12.867716 C249.282742,10.6729408 248.733812,9.57555321 247.087021,7.380778 C243.793441,4.0886152 239.95093,3.5399214 236.65735,5.1860028 C232.814839,6.8320842 231.716979,11.7703284 231.168049,16.1598788 Z M209.759775,57.3119139 C207.564055,55.6658325 205.368335,56.2145263 203.721544,58.4093015 C202.623684,60.6040767 203.172614,62.7988519 204.270474,64.4449333 C205.917265,67.1884023 211.955496,69.3831775 214.700146,67.7370961 C215.798006,67.1884023 217.993727,66.0910147 215.249076,64.9936271 C212.504426,63.8962395 212.504426,60.6040767 210.857635,59.5066891 C210.308705,58.9579953 210.308705,58.9579953 210.857635,58.4093015 C211.406566,57.8606077 211.955496,57.8606077 212.504426,58.4093015 C214.151216,58.9579953 215.249076,60.6040767 217.444797,60.6040767 C219.091587,60.6040767 219.640517,60.6040767 219.091587,61.7014643 C218.542657,62.7988519 219.091587,63.3475457 220.189447,63.8962395 C221.287307,57.8606077 218.542657,55.6658325 213.602286,54.5684449 C212.504426,54.5684449 211.406566,51.8249759 209.759775,53.4710573 C207.564055,54.5684449 210.857635,55.1171387 209.759775,57.3119139 Z M133.458493,357.996117 C133.458493,365.129136 138.398863,369.518686 139.496724,376.651706 C142.790304,373.359543 144.986025,370.616074 147.730675,368.421299 C149.926395,366.775217 148.279605,364.580442 148.828535,362.934361 C148.828535,361.836973 146.632815,361.836973 145.534955,361.836973 C140.045654,362.385667 145.534955,365.129136 144.437094,366.775217 C140.594584,363.483055 136.203143,361.836973 133.458493,357.996117 Z M213.602286,13.9651036 C207.564055,13.9651036 202.074754,20.0007354 204.270474,26.0363672 C204.819404,27.1337548 204.819404,28.7798362 206.466195,28.2311424 C208.661915,28.2311424 208.112985,26.0363672 208.112985,24.9389796 C208.112985,19.4520416 208.112985,18.9033478 213.602286,21.098123 C216.346936,22.1955106 218.542657,21.6468168 220.738377,20.0007354 C221.836237,19.4520416 222.385167,18.354654 221.287307,16.7085726 C219.640517,14.5137974 217.444797,13.9651036 213.602286,13.9651036 Z M153.219976,380.492562 C150.475325,376.103012 153.219976,372.262155 151.573186,368.421299 C146.083885,371.164768 142.241374,375.554318 137.849933,379.395175 C136.203143,381.041256 135.105283,382.687338 136.752073,384.333419 C138.398863,385.9795 140.045654,383.784725 141.692444,382.687338 C144.986025,381.58995 147.730675,378.297787 153.219976,380.492562 Z M241.597721,51.2762821 C241.04879,51.8249759 239.95093,51.8249759 239.95093,52.3736697 C237.20628,55.1171387 238.30414,59.5066891 241.597721,61.1527705 C243.793441,62.2501581 246.538091,63.3475457 248.733812,65.5423209 C250.380602,67.1884023 250.929532,66.6397085 251.478462,64.4449333 C252.027392,61.1527705 252.576322,57.8606077 249.282742,55.6658325 C246.538091,54.0197511 243.793441,53.4710573 241.597721,51.2762821 Z M281.669617,29.8772238 C281.669617,28.2311424 275.631386,23.2928982 273.984596,23.841592 C273.435666,23.841592 273.435666,24.3902858 272.886736,24.3902858 C271.239945,27.1337548 269.044225,29.8772238 267.397435,32.071999 C265.750645,34.2667742 267.397435,36.4615494 268.495295,38.1076308 C269.593155,39.7537122 271.788876,37.558937 273.435666,38.1076308 C274.533526,38.1076308 276.180316,36.4615494 275.631386,34.815468 C273.984596,29.8772238 275.082456,28.2311424 280.022827,30.9746114 C281.120687,31.5233052 281.669617,31.5233052 281.669617,29.8772238 Z M304.175751,272.948577 C301.980031,266.912946 302.528961,266.364252 308.567192,266.364252 C309.116122,266.364252 310.213982,265.815558 310.762912,265.266864 C312.409702,264.169477 310.762912,263.620783 310.213982,263.072089 C306.920401,257.036457 300.33324,256.487763 294.295009,254.292988 C297.03966,257.036457 298.13752,260.32862 299.78431,263.072089 C301.4311,266.364252 300.88217,270.753802 304.175751,272.948577 Z M199.879034,35.9128556 C199.879034,34.815468 200.427964,32.071999 198.232243,33.1693866 C195.487593,33.7180804 191.096152,32.6206928 190.547222,37.558937 C190.547222,41.3997936 193.291873,45.789344 197.134383,45.2406502 C203.721544,44.1432626 198.781173,39.2050184 199.879034,35.9128556 Z M141.692444,393.11252 C145.534955,395.855989 150.475325,394.209907 151.024256,390.369051 C151.024256,389.820357 151.573186,387.625582 149.926395,388.722969 C147.730675,389.820357 147.181745,388.722969 145.534955,387.625582 C143.339234,386.528194 140.594584,388.722969 140.594584,389.820357 C141.692444,393.11252 139.496724,392.015132 137.849933,392.563826 C136.203143,393.11252 134.556353,394.209907 135.105283,395.855989 C135.654213,397.50207 136.203143,399.696845 137.849933,400.245539 C138.947794,400.794233 141.143514,399.148152 142.241374,397.50207 C143.888164,396.953376 142.241374,395.307295 141.692444,393.11252 Z M362.36234,389.271663 C362.36234,382.138644 361.81341,381.041256 355.775179,382.687338 C354.128389,383.236031 351.383739,383.784725 352.481599,387.076888 C353.579459,389.820357 359.06876,395.855989 360.16662,394.758601 C361.26448,394.209907 362.36234,393.11252 362.36234,391.466438 C362.36234,390.917745 362.36234,389.820357 362.36234,389.271663 Z M344.247647,338.24314 C337.111556,343.730078 340.405137,350.863097 340.405137,357.996117 C340.405137,358.54481 340.405137,359.642198 342.051927,358.54481 C344.796578,356.350035 345.345508,354.15526 343.698717,350.863097 C343.149787,349.76571 341.502997,345.924853 344.796578,347.022241 C348.090158,347.570934 348.639088,345.924853 350.285878,344.827465 C349.188018,341.535303 344.796578,342.083996 344.247647,338.24314 Z M186.704711,61.1527705 C188.351502,59.5066891 189.449362,57.8606077 189.998292,55.6658325 C190.547222,53.4710573 190.547222,52.3736697 187.802572,52.3736697 C186.155781,52.3736697 183.960061,52.3736697 182.313271,53.4710573 C179.01969,55.6658325 177.3729,58.4093015 178.47076,62.2501581 C179.01969,64.4449333 175.72611,68.2857899 181.215411,68.8344837 C181.764341,64.4449333 179.01969,58.4093015 185.606851,56.2145263 C187.802572,57.8606077 185.057921,59.5066891 186.704711,61.1527705 Z M157.611417,266.912946 C154.317836,266.364252 152.122116,265.815558 149.926395,265.815558 C146.632815,265.815558 143.339234,262.523395 140.045654,263.620783 C135.105283,265.266864 131.262772,263.620783 127.969192,260.877314 C126.871332,260.32862 126.322402,258.682539 124.675611,259.779926 C123.577751,260.32862 123.577751,261.426008 123.577751,262.523395 C124.126681,263.620783 125.224541,264.169477 126.871332,264.169477 C133.458493,265.266864 140.045654,266.364252 146.632815,266.912946 C149.377465,267.461639 153.219976,269.656415 157.611417,266.912946 Z M354.128389,359.642198 C355.775179,357.447423 359.06876,359.642198 360.16662,357.996117 C361.81341,355.801341 360.16662,352.509179 359.06876,350.314403 C358.51983,349.217016 351.383739,349.217016 350.834809,350.314403 C349.188018,352.509179 350.285878,356.898729 351.932669,356.350035 C357.9709,354.15526 353.030529,358.54481 354.128389,359.642198 Z M344.247647,432.618473 C344.247647,437.008024 344.247647,440.84888 344.796578,444.141043 C345.345508,446.335818 345.894438,446.884512 347.541228,445.787125 C353.030529,442.494962 353.030529,439.751493 348.639088,435.361942 C347.541228,434.264555 345.894438,433.167167 344.247647,432.618473 Z M361.26448,360.190892 C360.71555,360.190892 360.16662,360.190892 360.16662,360.190892 C359.61769,362.385667 359.06876,364.031748 359.61769,366.226524 C360.16662,367.872605 358.51983,368.421299 357.42197,367.872605 C355.775179,366.775217 354.128389,366.775217 353.030529,368.969993 C351.932669,371.164768 354.677319,372.262155 355.226249,373.908237 C355.775179,375.554318 357.9709,375.554318 359.61769,375.005624 C360.71555,374.456931 361.81341,373.908237 361.81341,372.262155 C361.26448,367.872605 361.26448,364.031748 361.26448,360.190892 Z M228.423398,33.1693866 C227.874468,35.9128556 225.678748,38.1076308 227.325538,38.1076308 C231.716979,39.2050184 230.070189,42.4971812 230.619119,44.6919564 C230.619119,46.3380378 231.168049,46.8867316 232.814839,47.4354254 C234.461629,47.9841192 234.461629,46.8867316 235.55949,46.3380378 C239.402,43.5945688 237.75521,42.4971812 235.55949,39.7537122 C233.363769,37.558937 228.972328,38.6563246 228.423398,33.1693866 Z M338.209416,289.409392 C340.954067,286.665923 342.600857,289.409392 344.247647,291.055473 C344.796578,291.604167 345.345508,292.701554 345.894438,291.604167 C346.992298,290.506779 348.090158,289.409392 348.090158,288.312004 C348.090158,287.214616 346.992298,288.312004 346.443368,287.76331 C343.698717,286.117229 340.954067,284.471147 337.660486,283.37376 C335.464766,282.825066 333.817976,278.984209 332.720116,280.081597 C331.073325,281.727678 334.915836,283.37376 335.464766,286.117229 C335.464766,287.214616 336.013696,288.860698 338.209416,289.409392 Z M230.619119,62.7988519 C229.521259,64.4449333 226.776608,63.3475457 227.325538,66.0910147 C227.874468,69.3831775 230.070189,71.5779527 233.363769,73.2240341 C234.461629,71.5779527 233.912699,69.9318713 233.912699,68.8344837 C233.363769,67.1884023 233.363769,66.6397085 233.912699,64.9936271 C235.010559,61.1527705 232.265909,58.4093015 227.325538,58.9579953 C227.325538,61.1527705 229.521259,61.7014643 230.619119,62.7988519 Z M346.443368,366.226524 C346.443368,365.67783 345.345508,364.031748 347.541228,364.031748 C349.736948,364.031748 350.834809,364.031748 349.736948,361.288279 C348.639088,358.54481 346.443368,360.739586 345.345508,361.288279 C343.698717,361.836973 340.405137,372.262155 340.954067,373.908237 C341.502997,375.005624 342.600857,376.651706 343.698717,375.005624 C344.796578,372.810849 346.992298,370.616074 346.443368,366.226524 Z M206.466195,266.912946 C205.917265,266.364252 204.819404,265.266864 204.270474,265.266864 C199.879034,266.912946 195.487593,268.559027 191.645082,271.302496 C189.998292,272.399884 189.449362,276.789434 191.096152,277.886822 C192.742942,279.532903 193.291873,276.24074 194.938663,275.143353 C198.232243,271.85119 200.427964,266.912946 206.466195,266.912946 Z M349.736948,317.392775 C350.285878,317.941469 351.383739,317.941469 351.932669,318.490163 C354.128389,320.136244 356.324109,321.782326 358.51983,319.587551 C360.71555,317.941469 359.06876,315.746694 358.51983,313.551919 C357.9709,311.905837 357.42197,310.259756 356.87304,308.064981 C354.677319,311.357144 355.226249,316.295388 349.736948,317.392775 Z M270.142085,43.5945688 C267.946365,43.5945688 265.750645,43.045875 265.750645,46.3380378 C265.750645,47.9841192 271.239945,52.3736697 272.886736,51.8249759 C274.533526,51.2762821 275.631386,50.7275883 275.082456,48.532813 C273.984596,46.8867316 274.533526,43.045875 270.142085,43.5945688 Z M137.301003,261.974701 C136.203143,258.682539 134.007423,255.93907 133.458493,252.646907 C133.458493,252.098213 134.007423,249.354744 131.262772,249.354744 C129.067052,249.903438 129.615982,252.098213 128.518122,253.195601 C126.871332,254.292988 127.969192,255.390376 129.067052,256.487763 C131.262772,258.682539 134.007423,260.32862 137.301003,261.974701 Z M183.960061,270.205108 C179.01969,269.107721 174.628249,270.205108 170.785739,271.85119 C167.492158,272.948577 169.138949,276.24074 169.687879,278.435516 C169.687879,279.532903 170.236809,280.081597 171.334669,279.532903 C173.530389,278.435516 172.981459,276.789434 172.432529,274.594659 C171.883599,272.948577 171.334669,270.205108 175.17718,272.399884 C179.01969,274.594659 181.215411,271.85119 183.960061,270.205108 Z M125.773471,407.927252 C127.420262,411.768109 129.067052,412.316803 129.067052,411.219415 C129.615982,407.378559 132.909563,407.927252 134.556353,406.829865 C135.654213,406.281171 137.301003,405.183783 136.203143,404.086396 C134.556353,402.440314 134.007423,399.696845 131.811702,399.696845 C130.713842,399.696845 129.067052,402.440314 129.615982,403.537702 C131.811702,407.378559 129.067052,407.378559 125.773471,407.927252 Z M359.06876,325.623182 C359.06876,330.561427 352.481599,330.561427 353.030529,334.950977 C350.285878,334.950977 350.285878,337.694446 351.383739,338.24314 C352.481599,339.340527 355.226249,338.791834 356.87304,337.145752 C359.61769,334.402283 360.16662,330.561427 359.06876,325.623182 Z M152.671046,298.188492 C154.866766,300.931961 155.415696,305.321512 158.709277,306.967593 C159.807137,307.516287 161.453927,308.613675 161.453927,306.418899 C162.002857,303.126737 160.356067,300.383268 158.709277,297.639799 C156.513556,295.993717 154.866766,298.737186 152.671046,298.188492 Z M147.181745,225.760911 C143.888164,221.920054 138.947794,221.920054 134.556353,220.822666 C133.458493,220.822666 132.909563,220.822666 132.360632,221.920054 C131.811702,223.017442 132.360632,223.566135 132.909563,224.663523 C134.007423,226.309604 135.105283,227.406992 137.849933,226.309604 C140.594584,224.663523 143.888164,224.114829 147.181745,225.760911 Z M277.278176,54.0197511 C280.022827,52.9223635 283.865338,51.8249759 284.414268,49.6302007 C284.963198,47.4354254 281.120687,44.6919564 278.924967,45.2406502 C276.729246,45.789344 276.729246,49.6302007 276.180316,51.8249759 C275.631386,52.9223635 276.180316,54.0197511 277.278176,54.0197511 Z M356.324109,292.152861 C354.128389,294.347636 352.481599,296.542411 350.834809,298.188492 C349.188018,299.834574 350.285878,300.931961 350.834809,302.029349 C351.383739,302.578043 351.383739,303.126737 352.481599,303.126737 C356.87304,300.931961 358.51983,297.639799 356.324109,292.152861 Z M118.63738,246.611275 C118.63738,242.770418 118.63738,242.221725 119.73524,242.770418 C124.126681,244.965194 122.479891,240.575643 123.577751,239.478256 C124.126681,238.929562 123.577751,237.28348 122.479891,237.28348 C120.833101,236.734787 119.73524,238.929562 118.63738,240.026949 C118.08845,240.575643 116.99059,241.124337 116.44166,242.221725 C114.24594,243.867806 112.599149,246.611275 118.63738,246.611275 Z M134.007423,479.257447 C131.262772,478.160059 135.105283,473.221815 130.713842,473.221815 C130.164912,473.221815 129.067052,470.478346 127.420262,472.124427 C126.322402,473.221815 124.126681,474.319202 124.126681,475.965284 C124.126681,478.160059 126.322402,477.062671 127.420262,478.160059 C129.615982,478.708753 131.811702,478.708753 134.007423,479.257447 Z M174.079319,292.701554 C176.27504,289.409392 180.11755,287.214616 176.82397,282.825066 C175.72611,281.178985 173.530389,281.727678 172.432529,283.37376 C170.236809,286.665923 172.981459,288.860698 174.079319,292.701554 Z M112.599149,247.159969 C113.148079,251.000825 114.24594,253.195601 114.24594,255.93907 C114.24594,258.133845 116.99059,258.682539 118.08845,259.779926 C118.63738,260.32862 119.73524,259.231232 119.73524,258.682539 C120.833101,257.585151 120.284171,255.93907 119.73524,255.390376 C117.53952,253.744294 116.44166,250.452132 112.599149,247.159969 Z M281.120687,292.152861 C278.924967,287.76331 281.120687,282.825066 275.082456,281.178985 C274.533526,281.178985 273.984596,280.081597 272.886736,281.178985 C272.337806,281.727678 272.337806,282.825066 272.886736,283.37376 C275.082456,286.117229 277.278176,289.409392 281.120687,292.152861 Z M253.125252,265.815558 C256.418833,265.266864 258.065623,266.912946 259.163483,269.656415 C259.712414,271.302496 261.359204,272.948577 262.457064,274.594659 C263.005994,275.692046 263.554924,275.692046 264.652784,275.143353 C266.299575,274.045965 265.201714,273.497271 264.652784,272.948577 C262.457064,271.302496 260.810274,269.656415 259.712414,266.912946 C258.614553,262.523395 256.418833,263.072089 253.125252,265.815558 Z M344.796578,396.404683 C344.796578,397.50207 342.600857,398.599458 344.247647,400.794233 C345.345508,401.891621 348.639088,401.891621 345.894438,404.63509 C345.894438,404.63509 347.541228,406.829865 348.639088,408.475946 C349.188018,409.02464 349.736948,408.475946 350.285878,407.927252 C350.834809,407.378559 351.932669,406.281171 351.383739,405.732477 C348.090158,402.989008 349.736948,398.050764 344.796578,396.404683 Z M207.015125,44.6919564 C208.112985,43.045875 206.466195,39.2050184 210.308705,39.7537122 C211.955496,39.7537122 211.955496,38.6563246 211.955496,38.6563246 C210.857635,37.558937 213.053356,35.9128556 210.857635,35.9128556 C209.210845,35.9128556 207.015125,33.7180804 206.466195,36.4615494 C205.368335,38.6563246 202.074754,41.9484874 207.015125,44.6919564 Z M127.969192,389.271663 C125.773471,388.722969 126.871332,390.369051 126.871332,390.917745 C125.773471,393.11252 127.969192,394.758601 127.969192,396.953376 C127.969192,398.050764 128.518122,399.148152 129.067052,399.148152 C129.615982,399.148152 130.164912,398.050764 130.164912,396.404683 C129.615982,394.209907 127.969192,390.369051 133.458493,391.466438 C134.556353,391.466438 135.654213,390.917745 135.654213,389.271663 C135.105283,386.528194 133.458493,389.271663 132.909563,389.271663 C131.262772,389.271663 129.615982,390.369051 127.969192,389.271663 Z M353.579459,402.989008 C353.579459,400.245539 356.324109,399.696845 355.226249,398.050764 C353.030529,395.307295 352.481599,391.466438 349.188018,390.369051 C348.090158,389.820357 347.541228,390.917745 348.090158,392.015132 C349.736948,395.307295 351.383739,398.599458 353.579459,402.989008 Z M203.721544,280.630291 C205.368335,277.338128 208.112985,275.692046 210.308705,273.497271 C211.406566,272.399884 212.504426,271.85119 211.406566,270.753802 C210.857635,270.205108 209.210845,269.656415 208.112985,271.302496 C207.564055,272.948577 205.917265,272.948577 205.368335,274.045965 C204.270474,276.24074 200.976894,277.338128 203.721544,280.630291 Z M141.143514,319.038857 C140.594584,315.746694 136.203143,314.100613 135.654213,310.259756 C135.654213,309.162368 134.007423,309.162368 132.909563,309.711062 C132.360632,309.711062 131.262772,310.80845 132.360632,310.80845 C136.203143,313.003225 131.811702,314.100613 131.811702,315.746694 C135.654213,314.649306 137.849933,319.038857 141.143514,319.038857 Z M121.382031,209.300097 C124.675611,210.946178 126.871332,212.043566 129.615982,213.140953 C127.969192,209.84879 128.518122,207.105321 128.518122,203.813159 C126.322402,206.556628 124.126681,207.105321 121.382031,209.300097 Z M146.083885,357.447423 C152.671046,357.996117 153.219976,357.996117 152.122116,351.411791 C149.377465,352.509179 147.181745,354.15526 146.083885,357.447423 Z M351.932669,410.670721 C356.87304,409.02464 359.06876,404.63509 363.460201,402.440314 C356.324109,401.342927 355.226249,407.378559 351.932669,410.670721 Z M308.567192,295.993717 C312.409702,298.737186 309.665052,293.798942 311.311842,293.798942 C309.665052,292.701554 311.311842,289.409392 308.567192,289.409392 C305.273611,289.409392 306.920401,293.250248 305.822541,294.89633 C305.273611,296.542411 306.920401,297.091105 308.567192,295.993717 Z M194.389733,74.3214217 C193.840803,77.6135845 194.938663,79.8083597 197.683313,81.4544411 C199.330104,82.5518287 200.427964,80.9057473 199.879034,80.3570535 C198.232243,78.7109721 199.330104,73.2240341 194.389733,74.3214217 Z M116.44166,225.212217 C120.833101,221.920054 117.53952,218.079197 118.63738,213.689647 C115.3438,217.530504 112.050219,220.822666 116.44166,225.212217 Z M220.738377,25.4876734 C217.444797,26.585061 214.700146,26.0363672 215.249076,29.8772238 C215.798006,31.5233052 216.346936,32.6206928 217.993727,32.6206928 C221.836237,31.5233052 219.091587,28.2311424 220.738377,25.4876734 Z M196.585453,54.0197511 C195.487593,55.6658325 192.742942,56.2145263 192.742942,58.4093015 C192.742942,60.0553829 193.840803,61.7014643 196.036523,61.1527705 C198.232243,60.6040767 196.585453,57.3119139 198.232243,55.6658325 C198.232243,55.6658325 197.683313,54.0197511 196.585453,54.0197511 Z M343.149787,405.183783 C343.149787,408.475946 342.600857,410.122028 342.600857,412.316803 C342.600857,413.41419 341.502997,415.060272 343.698717,415.060272 C344.796578,415.060272 346.443368,414.511578 346.443368,412.316803 C346.443368,410.122028 345.345508,407.927252 343.149787,405.183783 Z M250.929532,27.6824486 C248.733812,30.9746114 247.635952,34.815468 248.184882,39.2050184 C251.478462,37.558937 251.478462,36.4615494 250.929532,33.7180804 C250.380602,32.071999 248.733812,29.8772238 250.929532,27.6824486 Z M98.875897,223.566135 C101.071617,225.212217 103.267338,225.760911 105.463058,226.309604 C106.011988,224.114829 106.011988,221.920054 106.560918,219.725279 C103.816268,221.37136 101.620547,222.468748 98.875897,223.566135 Z M279.473897,296.542411 C276.729246,292.701554 273.435666,291.055473 269.044225,289.409392 C272.886736,291.604167 274.533526,295.993717 279.473897,296.542411 Z M225.129818,50.7275883 C224.031958,50.1788945 223.483028,49.0815069 222.385167,48.532813 C222.385167,50.7275883 219.091587,50.7275883 219.091587,53.4710573 C219.091587,55.6658325 220.189447,55.6658325 221.287307,55.6658325 C224.580888,55.6658325 222.934097,51.8249759 225.129818,50.7275883 Z M252.027392,49.6302007 C252.576322,47.4354254 250.929532,46.8867316 249.282742,46.8867316 C247.087021,47.4354254 248.733812,50.1788945 247.635952,51.2762821 C247.087021,52.3736697 248.184882,53.4710573 249.282742,52.9223635 C251.478462,52.9223635 252.027392,51.8249759 252.027392,49.6302007 Z M209.759775,279.532903 C205.917265,281.727678 205.917265,281.727678 208.112985,288.860698 C207.015125,285.568535 210.857635,282.825066 209.759775,279.532903 Z M199.879034,261.426008 C196.585453,261.974701 194.389733,262.523395 192.194012,262.523395 C191.096152,262.523395 190.547222,263.072089 190.547222,264.169477 C190.547222,265.815558 191.645082,265.266864 192.742942,265.266864 C195.487593,265.266864 197.134383,263.620783 199.879034,261.426008 Z M180.66648,306.967593 C182.862201,304.772818 187.802572,303.67543 184.508991,298.188492 C184.508991,302.029349 180.66648,303.67543 180.66648,306.967593 Z M244.891301,33.1693866 C244.342371,32.071999 245.989161,30.4259176 243.793441,30.4259176 C242.146651,30.4259176 241.597721,32.071999 241.597721,33.7180804 C241.597721,35.3641618 242.146651,37.0102432 243.244511,37.0102432 C245.440231,37.0102432 244.891301,34.815468 244.891301,33.1693866 Z M218.542657,40.302406 C219.640517,38.1076308 217.444797,38.1076308 216.895866,38.6563246 C215.798006,38.6563246 213.602286,37.558937 213.602286,40.302406 C213.602286,42.4971812 214.151216,43.045875 216.346936,43.5945688 C218.542657,43.5945688 217.993727,41.3997936 218.542657,40.302406 Z M263.005994,36.4615494 C263.005994,35.3641618 262.457064,33.7180804 260.810274,33.7180804 C259.163483,33.7180804 258.614553,35.3641618 258.065623,36.4615494 C257.516693,38.1076308 258.614553,39.2050184 260.261344,38.6563246 C261.908134,38.6563246 263.005994,38.6563246 263.005994,36.4615494 Z M244.342371,68.8344837 C243.244511,67.7370961 241.597721,66.0910147 238.85307,65.5423209 C237.75521,65.5423209 237.75521,66.0910147 237.75521,66.6397085 C238.85307,68.8344837 240.49986,69.9318713 242.695581,71.0292589 C243.244511,71.0292589 244.891301,70.4805651 244.342371,68.8344837 Z M202.074754,289.409392 C200.427964,289.958085 199.330104,291.055473 199.879034,292.701554 C199.879034,293.798942 200.427964,295.445023 201.525824,295.445023 C203.721544,295.445023 203.721544,293.250248 204.270474,291.604167 C204.270474,289.958085 203.172614,289.409392 202.074754,289.409392 Z M344.796578,429.326311 C345.894438,425.485454 347.541228,422.193291 344.247647,419.449822 C343.149787,422.741985 342.600857,425.485454 344.796578,429.326311 Z M123.577751,352.509179 C126.871332,352.509179 129.067052,353.057872 131.262772,353.057872 C129.615982,351.411791 130.164912,349.217016 128.518122,348.119628 C126.871332,349.217016 125.773471,350.314403 123.577751,352.509179 Z M196.036523,297.091105 C197.683313,299.834574 197.683313,303.67543 200.976894,304.772818 C202.074754,305.321512 202.623684,304.772818 203.172614,304.224124 C203.721544,303.67543 203.172614,303.126737 202.623684,303.126737 C199.879034,302.029349 199.330104,298.737186 196.036523,297.091105 Z" id="Shape" fill-rule="nonzero"></path>
            <path d="M125.115385,432.620253 C126.788462,430.987342 125.673077,428.810127 126.230769,426.632911 C126.230769,425.544304 126.788462,425 127.346154,425 C127.903846,425 129.019231,426.088608 129.019231,426.632911 C129.019231,430.443038 131.807692,433.164557 132.365385,437.518987 C134.596154,435.341772 137.942308,434.253165 136.269231,430.443038 C135.711538,429.35443 137.384615,428.265823 138.5,428.810127 C140.173077,429.898734 141.288462,430.987342 143.519231,429.898734 C143.519231,429.898734 144.634615,430.987342 144.634615,430.987342 C140.730769,436.974684 148.538462,436.974684 149.653846,440.240506 C150.211538,440.78481 152.442308,441.329114 151.326923,442.962025 C150.211538,445.139241 149.096154,442.962025 147.980769,442.962025 C144.634615,441.873418 143.519231,445.139241 141.288462,446.227848 C139.615385,447.316456 141.288462,448.949367 142.403846,449.493671 C143.519231,450.582278 144.076923,451.670886 144.076923,452.759494 C144.076923,452.759494 143.519231,452.759494 143.519231,452.759494 C141.288462,451.670886 140.730769,448.949367 137.942308,448.949367 C138.5,451.126582 131.807692,452.21519 137.384615,454.936709 C137.384615,454.936709 136.826923,455.481013 136.826923,455.481013 C132.923077,457.113924 139.615385,457.658228 137.384615,458.746835 C138.5,458.746835 139.057692,458.202532 139.615385,457.113924 C140.730769,454.936709 142.403846,453.303797 144.076923,452.21519 C145.192308,451.126582 146.865385,450.582278 147.423077,449.493671 C149.096154,447.316456 150.769231,447.860759 153,448.949367 C153,448.949367 153,448.949367 153,448.949367 C150.211538,452.21519 147.980769,455.481013 145.192308,458.746835 C146.865385,459.291139 148.538462,456.56962 149.653846,459.291139 C150.769231,461.468354 147.980769,461.468354 146.865385,462.556962 C143.519231,465.822785 139.057692,465.822785 135.153846,468 C133.480769,466.911392 131.25,465.278481 134.038462,463.101266 C136.269231,460.924051 134.596154,459.835443 133.480769,458.746835 C131.25,457.113924 129.019231,455.481013 126.230769,453.848101 C125.673077,453.303797 125.673077,453.303797 125.115385,452.759494 C126.788462,450.582278 126.230769,441.329114 124,438.607595 C125.115385,436.974684 125.115385,434.797468 125.115385,432.620253 Z M139.615385,436.43038 C137.942308,436.974684 136.826923,438.607595 135.711538,440.240506 C135.711538,440.78481 137.384615,442.962025 137.942308,442.962025 C139.615385,441.873418 141.846154,440.78481 142.961538,439.151899 C143.519231,438.607595 141.846154,436.974684 139.615385,436.43038 Z" id="Shape" fill-rule="nonzero"></path>
            <path d="M300,51.9090909 C300,53 298.316986,53 297.194976,53 C294.950958,53 292.706939,51.3636364 292.145934,49.1818182 C291.584929,48.0909091 292.706939,47 294.389953,47 C296.633972,47 300,49.1818182 300,51.9090909 Z" id="Path"></path>
        </g>
    </g>
</svg>