<?xml version="1.0" encoding="UTF-8"?>
<svg width="634px" height="908px" viewBox="0 0 634 908" version="1.1" xmlns="http://www.w3.org/2000/svg" xmlns:xlink="http://www.w3.org/1999/xlink">
    <!-- Generator: Sketch 52.5 (67469) - http://www.bohemiancoding.com/sketch -->
    <title>noun_little present_1480205</title>
    <desc>Created with Sketch.</desc>
    <g id="Holidelays-Game" stroke="none" stroke-width="1" fill="none" fill-rule="evenodd">
        <g id="noun_little-present_1480205" fill="#000000" fill-rule="nonzero">
            <path d="M8.10853298,908 C6.08139974,888.269234 2.40722073,868.285509 2.2805249,848.428263 C1.01356662,729.20047 0.253391656,609.972677 0,490.744884 C0,436.358797 2.02713325,381.846231 3.29409152,327.460144 C3.29409152,314.812217 -0.126695828,299.508225 5.82800808,290.907635 C9.88227457,284.963109 27.999778,289.895801 39.4024025,287.619174 C70.9496636,281.548169 102.750316,274.212371 136.578102,266.750094 C134.073629,261.948851 131.281247,257.302836 128.216178,252.837374 C99.5829207,217.423178 108.578324,157.977921 150.00786,138.247154 C178.429036,126.338445 199.012928,101.044076 204.867154,70.8337027 C215.382907,28.083709 275.690121,-5.0538601 320.033661,0.637707115 C323.074361,0.637707115 325.988365,2.40841691 328.902369,2.53489619 C373.752692,4.30560598 396.30455,29.8544188 402.639341,71.4660991 C419.236494,78.2959797 435.580256,84.1140262 450.65706,91.3233447 C494.113729,113.583696 516.412194,144.950556 493.100162,204.142855 C491.32642,208.569629 489.932766,212.996404 487.145458,221.217556 L588.50212,205.660606 C617.262073,201.233832 627.271044,212.364007 627.524435,241.960157 C627.524435,316.709406 630.565135,391.332176 631.958789,466.081426 C632.803428,512.541478 633.352444,558.917211 633.605835,605.208624 C633.605835,658.835835 634.492706,712.336567 633.605835,765.963778 C633.605835,794.042176 629.424873,821.994095 627.017652,852.096162 C615.488332,853.487434 606.74632,854.625747 598.004308,855.511102 C517.552457,863.479296 437.100606,872.459325 356.52206,879.036247 C310.151387,882.830625 263.400626,880.680477 217.156649,884.727814 C148.48751,890.67234 80.5785465,899.778847 8.10853298,908 Z M254.405222,600.402412 C242.749206,600.402412 232.866932,599.390578 222.984657,600.402412 C166.605014,605.9675 110.22537,611.532588 53.8457268,617.730072 C26.479428,620.765575 24.8323823,622.030367 24.9590781,649.096931 C24.9590781,694.629469 26.0993405,740.162007 27.6196905,785.568065 C28.6332571,814.531818 31.1671737,843.369092 32.9409152,872.459325 L281.898217,852.4756 L254.405222,600.402412 Z M378.69383,839.827673 C402.005862,837.424567 422.023803,835.274419 442.041743,833.503709 C485.371717,829.582852 528.828386,826.547349 572.031663,821.994095 C599.017874,819.085072 601.298399,818.199717 602.18527,790.627236 C603.578924,741.30032 602.18527,691.720446 600.791616,642.39353 C600.791616,621.52445 597.244133,600.655371 595.216999,579.153894 C589.880633,578.45891 584.507842,578.078812 579.126629,578.015581 C515.778715,581.557001 451.797322,584.845462 388.196017,588.892798 C365.770855,590.28407 362.856851,594.331407 364.503897,617.856551 C367.037813,664.274444 369.191642,710.692337 372.105646,756.98375 C373.499301,782.659042 375.526434,808.713772 378.69383,839.827673 Z M353.608056,475.567371 L594.330129,454.698291 C588.882208,379.569604 606.999711,306.085147 592.936474,230.071105 C537.570398,235.889152 484.231454,237.659862 434.186602,258.908379 C428.760795,261.547897 422.607861,262.304571 416.702578,261.058527 C389.336279,251.699061 364.503897,264.346988 337.644381,265.358822 L353.608056,475.567371 Z M251.364523,279.65098 C210.061683,276.236039 96.6689167,293.816658 30.0269112,312.915028 C21.4115949,342.258219 21.1582033,486.950506 30.0269112,510.222692 L252.251393,489.227132 C242.62251,417.639865 251.364523,349.0881 251.364523,279.65098 Z M183.328863,141.282657 C168.849044,152.726219 155.40936,165.423422 143.166285,179.226438 C132.530705,191.88159 129.763817,209.364966 135.973377,224.676894 C142.182938,239.988822 156.354036,250.626672 172.813109,252.331457 C180.589987,254.608454 188.654167,255.75851 196.758621,255.746397 C238.948331,251.572582 281.138042,246.766369 323.454449,241.833678 C348.999617,236.885292 374.871676,233.799478 400.865599,232.600691 C423.619904,234.40609 444.931424,221.313725 453.571064,200.221997 C466.845234,179.018611 466.845234,152.114743 453.571064,130.911357 C440.901481,111.30707 423.164065,98.6591424 399.978729,104.22423 C388.956192,121.298932 380.087484,136.982362 369.064947,151.021561 C363.856043,156.719412 356.519973,160.015 348.793614,160.128068 C321.934099,159.116234 312.811999,141.409136 323.454449,116.49272 C333.268265,95.6046886 351.81142,80.101341 374.13278,74.1221638 C366.404334,28.9690639 342.712214,16.8270539 302.422941,22.1391832 C281.93621,23.8829715 263.477713,35.1829563 252.631481,52.6206877 C239.961898,73.4897674 219.56387,91.3233447 222.857961,118.769347 C255.038702,139.132509 264.034105,154.436501 257.699314,176.949811 C253.045344,191.789095 239.06013,201.717138 223.49144,201.233832 C201.699758,199.336642 190.677221,184.665047 183.328863,141.282657 Z M219.56387,145.835911 L213.862557,148.365496 C212.526519,153.874012 212.311109,159.594131 213.229078,165.187239 C214.749428,169.108097 221.08422,171.258244 225.898661,174.167267 C227.925794,169.614014 232.486844,164.175405 231.473278,160.633985 C228.397228,155.010872 224.318267,149.995896 219.437174,145.835911 L219.56387,145.835911 Z M364.123809,110.421715 C350.694052,114.72201 343.218998,119.781181 346.006306,134.832214 C360.069543,132.176149 364.123809,124.713872 364.123809,110.421715 Z" id="Shape"></path>
        </g>
    </g>
</svg>