<?xml version="1.0" encoding="UTF-8"?>
<svg width="76px" height="39px" viewBox="0 0 76 39" version="1.1" xmlns="http://www.w3.org/2000/svg" xmlns:xlink="http://www.w3.org/1999/xlink">
    <!-- Generator: Sketch 49.1 (51147) - http://www.bohemiancoding.com/sketch -->
    <title>lights</title>
    <desc>Created with Sketch.</desc>
    <defs></defs>
    <g id="Images" stroke="none" stroke-width="1" fill="none" fill-rule="evenodd">
        <g id="lights" transform="translate(-1.000000, 0.000000)" fill="#000000" fill-rule="nonzero">
            <path d="M43.84,19.62 C42.67,20.62 41.47,21.7 39.79,20.99 C38.11,20.28 37.6,18.59 37.54,16.83 C37.4997413,16.5736945 37.4327078,16.3223191 37.34,16.08 L22.87,15.34 C22.6868802,15.7145975 22.5233269,16.0984472 22.38,16.49 C21.65,18.61 19.76,19.27 17.92,19.61 C15.92,19.99 14.43,18.73 14.65,16.51 C14.93,13.64 13.53,12.37 11.27,11.27 C9.85420954,10.5217974 8.51456644,9.63763295 7.27,8.63 C6.38,7.96 6.42,7.84 6.48,5.99 C8.76,8.74 11.75,9.99 14.4,11.64 C14.63,11.5 14.83,11.46 14.88,11.35 C16.55,7.87 18.25,7.26 21.77,8.8 C22.72844,9.08013617 23.3479627,10.0073129 23.24,11 C23.24,11.86 23.24,12.73 23.24,13.7 C27.7909271,14.7668817 32.4993275,14.9872172 37.13,14.35 C37.2308429,13.4628565 37.2308429,12.5671435 37.13,11.68 C36.8,10.34 37.47,9.68 38.5,9.28 C39.7139895,8.62767085 41.1782869,8.64622477 42.3753582,9.32910415 C43.5724295,10.0119835 44.3336584,11.2629998 44.39,12.64 C44.4564796,12.9378618 44.5399494,13.2316754 44.64,13.52 C48.9405284,13.1557752 53.1614252,12.1443782 57.16,10.52 L56.42,6.88 C60.19,4.82 62.22,3.54 65.02,7.24 C66.26,6.46 67.54,5.67 68.79,4.85 C70.04,4.03 71.26,3.08 72.58,2.35 C73.9,1.62 74.41,-0.04 76.74,0.25 C76.2138416,0.949091995 75.6210616,1.59545658 74.97,2.18 C72.16,4.18 69.33,6.08 66.43,7.91 C65.37,8.58 64.64,9.2 65.02,10.56 C65.1267972,11.0287544 65.1705169,11.5096716 65.15,11.99 C65.15,14.11 64.54,14.87 62.33,15.51 C60.94,15.91 59.94,15.51 58.9,14 C58.49,13.42 58.17,12.77 57.79,12.12 L44.59,15.2 L43.83,19.72 L43.84,19.62 Z" id="Shape"></path>
            <path d="M59,16 C60.14,16.66 59.73,17.18 59.4,17.75 C58.265845,19.6593371 58.3961684,22.0643961 59.73,23.84 C60.6144304,25.4188477 62.3488188,26.3252815 64.15,26.15 C66.15,25.99 68.15,26 69.48,24.06 C71.065043,22.0603386 71.8588138,19.5473244 71.71,17 C71.61,15.88 70.71,15.1 69.23,14.85 C68.76,14.77 68.23,14.8 67.8,14.76 L66.5,14.63 C66.5,14.32 66.45,14.07 66.5,14.04 C67.8705997,13.3238885 69.5110916,13.3529334 70.8554828,14.1171137 C72.199874,14.8812939 73.0641035,16.2759854 73.15,17.82 C73.1373106,20.9675987 71.8449595,23.9746615 69.57,26.15 C69.4299512,26.3448411 69.2446283,26.5027088 69.03,26.61 C66.47,27.36 63.82,27.84 61.31,26.81 C58.8,25.78 57.67,23.49 57.16,21 C56.76,19 57.6,17.45 59,16 Z" id="Shape"></path>
            <path d="M43.79,19.67 C46.37,19.47 48,20.54 48.4,23 C49,26.67 48.05,29.82 44.4,31.25 C40.75,32.68 36.29,31.02 34.65,27.8 C33.2,24.97 33.57,22.38 35.65,20.36 C36.27,19.76 36.84,19.36 37.82,20.14 C37.39,20.64 37.04,21.14 36.6,21.56 C33.86,24.21 35.22,28.71 39,30 C40.6035632,30.4591106 42.3087037,30.4207536 43.89,29.89 C46.49,29.05 47.94,24.26 46.49,21.89 C46.11,21.29 45.23,21.02 44.63,20.53 C44.3361441,20.2270297 44.0778075,19.8915276 43.86,19.53 L43.79,19.67 Z" id="Shape"></path>
            <path d="M14.6,18.9 C13.86,19.45 13.21,19.9 12.6,20.36 C9.87,22.74 9.39,26.1 11.5,28.36 C12.0966769,28.9962353 12.8325592,29.4856826 13.65,29.79 C17.3019833,30.9592646 21.2302675,29.0654274 22.59,25.48 C23.32,23.38 22.78,22.28 20.59,21.48 C20.2993974,21.3393127 20.0187442,21.1789394 19.75,21 C21.15,20.29 22.03,20.35 22.94,21.28 C24.0074712,22.2782676 24.4871248,23.7549966 24.21,25.19 C23.43,29.92 19.04,31.44 15.5,31.37 C14.8788964,31.3099454 14.2656482,31.1859554 13.67,31 C11.7147672,30.6040515 10.0730556,29.2843215 9.26616192,27.4598674 C8.45926825,25.6354132 8.58744802,23.5329209 9.61,21.82 C10.3623052,20.6932755 11.2752928,19.6825881 12.32,18.82 C12.627362,18.5170126 13.0458985,18.3539171 13.4772263,18.3690514 C13.9085541,18.3841857 14.31463,18.576215 14.6,18.9 Z" id="Shape"></path>
            <path d="M32.63,31.32 C32.3355073,33.1294613 31.1301207,34.6598111 29.44,35.37 C30.08,33.68 30.82,32.08 32.63,31.32 Z" id="Shape"></path>
            <path d="M54.07,31.46 C54.5706783,29.8161532 55.5572838,28.3623917 56.9,27.29 C57.7,28.52 56.74,29.15 56.3,29.84 C55.7731983,30.564217 55.1985845,31.2524172 54.58,31.9 L54.07,31.46 Z" id="Shape"></path>
            <path d="M18,38 L18,32.77 C19.52,34.28 19,35.77 19.11,37.14 C19.13,37.36 18.54,37.62 18,38 Z" id="Shape"></path>
            <path d="M40.43,34.39 C41.1467585,35.8442422 40.9802869,37.5786439 40,38.87 C39.21,37.06 39.32,35.68 40.43,34.39 Z" id="Shape"></path>
            <path d="M45.85,33.32 C47.43,34.32 47.94,35.73 48.58,37.32 C47,36.83 46,35.45 45.85,33.32 Z" id="Shape"></path>
            <path d="M74.52,30.76 L71.52,27.15 C73.43,27.15 73.91,27.62 74.88,30.38 L74.52,30.76 Z" id="Shape"></path>
            <path d="M10.64,32.25 C11.16,34.44 10.9,35.04 9.06,36.35 C8.82,34.64 9.7,33.63 10.64,32.25 Z" id="Shape"></path>
            <path d="M65.69,34.7 C65.37,34.47 64.9,34.3 64.77,33.98 C64.2636623,32.7445156 64.458301,31.3324307 65.28,30.28 L66.08,34.28 L65.69,34.7 Z" id="Shape"></path>
            <path d="M5.75,28.2 C4.45158901,29.448438 2.73084916,30.162438 0.93,30.2 C2.48,28.94 3.58,28 5.75,28.2 Z" id="Shape"></path>
        </g>
    </g>
</svg>