<?xml version="1.0" encoding="UTF-8"?>
<svg width="44px" height="71px" viewBox="0 0 44 71" version="1.1" xmlns="http://www.w3.org/2000/svg" xmlns:xlink="http://www.w3.org/1999/xlink">
    <!-- Generator: Sketch 49.1 (51147) - http://www.bohemiancoding.com/sketch -->
    <title>ornament</title>
    <desc>Created with Sketch.</desc>
    <defs></defs>
    <g id="Images" stroke="none" stroke-width="1" fill="none" fill-rule="evenodd">
        <g id="ornament" fill="#000000" fill-rule="nonzero">
            <path d="M23.38,70.79 C14.12,71.42 7.38,67.19 2.57,59.68 C1.28904968,57.5213857 0.660412021,55.0380933 0.76,52.53 C1.18,42.9 5.52,35.23 13.34,29.53 C13.87,29.14 14.63,28.79 14.82,28.25 C15.5441614,26.3523509 16.7339948,24.6673267 18.28,23.35 C18.6149395,22.9046893 18.819239,22.3748958 18.87,21.82 C18.97,21.36 18.74,20.73 18.97,20.4 C20.97,17.61 19.35,14.67 19.43,11.81 C19.5420054,9.22261534 19.785654,6.64260993 20.16,4.08 C20.2742286,3.21749849 20.6197802,2.40199679 21.16,1.72 C21.72,1.05 22.69,0.19 23.35,0.28 C24.3500422,0.501296014 25.2063209,1.14259413 25.7,2.04 C26.2636512,3.2801895 26.5110308,4.64077742 26.42,6 C26.17,9.53 26.11,13.15 24.28,16.37 C23.7310543,17.2259629 23.9117686,18.3575787 24.7,19 C25.56,19.9 25.47,21 25.7,22.13 C26.11,24.67 27.7,26.88 28.7,29.25 C28.91,29.72 29.82,29.96 30.45,30.17 C34.14,31.35 36.72,33.93 38.75,37.03 C43.0099329,43.2600643 44.3392625,51.0388338 42.39,58.33 C40.67,64.89 35.95,68.89 29.18,70.17 C27.24,70.53 25.3,70.6 23.38,70.79 Z M22.89,29.92 C18.16,30 14,31.33 11,35.21 C7.57708102,39.5288611 5.22620001,44.5973057 4.14,50 C3.73259631,52.2821196 3.82127189,54.6252013 4.4,56.87 C5.81,62.53 9.33,66.44 15.23,67.59 C18.1741903,68.0930292 21.1533649,68.3638632 24.14,68.4 C27.3690482,68.4488261 30.4937638,67.2569243 32.87,65.07 C37.6,60.85 40.54,55.54 40.34,48.87 C40.2126782,45.2885565 39.1171866,41.8085566 37.17,38.8 C33.9,33.65 29.54,29.85 22.89,29.92 Z M22,16.18 C23.85,14.07 25,9.86 24.9,5.77 C24.9,4.31 25.07,2.71 23.67,1.61 C20.73,4.2 20,10.94 22,16.18 Z M17.34,28 L25.72,28 C25.53,26.5 25.27,25.25 23.87,24.84 C21.36,24.11 19.45,25 17.34,28 Z M20.65,22.11 C21.46,22.11 22.23,22.35 22.58,22.11 C22.9411548,21.8125909 23.1560972,21.3735672 23.1695137,20.9059082 C23.1829301,20.4382491 22.9935104,19.987625 22.65,19.67 C21.11,19.7 21,20.71 20.65,22.11 Z" id="Shape"></path>
            <path d="M13.88,50.32 L19.32,38.74 C19.4590275,38.282434 19.6645576,37.8477884 19.93,37.45 C20.28,37.08 20.93,36.59 21.24,36.68 C21.7202505,36.9329738 22.0616153,37.3881269 22.17,37.92 C22.44,39.13 22.46,40.4 22.73,41.61 C23.43,44.75 24.61,47.61 27.15,49.82 C27.3823919,50.0945394 27.5681905,50.4053298 27.7,50.74 C25.400075,53.9645273 23.631037,57.5363637 22.46,61.32 C22.2300293,61.8923831 21.7741973,62.3445973 21.2,62.57 C20.98,62.66 20.2,61.98 20.08,61.57 C18.6822469,57.4884424 16.5842244,53.6815468 13.88,50.32 Z M15.88,50.15 L21.36,57.55 C22.51,55.55 23.47,53.79 24.48,52.09 C24.9083357,51.3327753 24.8454469,50.3933731 24.32,49.7 C23.26,47.7 22.32,45.57 21.32,43.51 C21.0191372,42.9859007 20.6851247,42.4815418 20.32,42 L15.88,50.15 Z" id="Shape"></path>
        </g>
    </g>
</svg>