<?xml version="1.0" encoding="UTF-8"?>
<svg width="53px" height="79px" viewBox="0 0 53 79" version="1.1" xmlns="http://www.w3.org/2000/svg" xmlns:xlink="http://www.w3.org/1999/xlink">
    <!-- Generator: Sketch 49.1 (51147) - http://www.bohemiancoding.com/sketch -->
    <title>pine-tree</title>
    <desc>Created with Sketch.</desc>
    <defs></defs>
    <g id="Images" stroke="none" stroke-width="1" fill="none" fill-rule="evenodd">
        <g id="pine-tree" fill="#000000" fill-rule="nonzero">
            <path d="M32.61,78.84 C30.72,78.76 28.95,78.68 27.17,78.62 C26.31,78.62 25.44,78.62 24.58,78.62 C22.58,78.54 22,78.08 21.76,76.12 C21.39,73.12 21.14,70.12 20.84,67.12 C20.7,65.69 20.56,64.26 20.4,62.6 C17.03,62.49 13.79,63.14 10.52,63.39 C7.25,63.64 4.1,64.97 0.6,64.25 C1.4,61.42 3.06,59.14 4.29,56.67 C5.52,54.2 7.24,52.13 8.06,49.25 C7.06,49.25 6.28,49.25 5.52,49.25 C4.05,49.25 3.7,48.69 4.37,47.36 C5.92,44.29 7.56,41.27 9.09,38.18 C10.4060027,35.8684194 11.3285779,33.3541485 11.82,30.74 L8,31 C8.26669076,30.1641514 8.60113358,29.3514553 9,28.57 C10.4,26.31 12,24.17 13.27,21.85 C15.8,17.27 18.27,12.63 20.58,7.96 C21.41,6.31 21.87,4.48 22.58,2.78 C23.0710685,1.81959964 23.6221602,0.891093646 24.23,7.10542736e-15 C24.781264,0.485971506 25.286721,1.02155509 25.74,1.6 C27.41,4.36 29.06,7.13 30.66,9.94 C33.88,15.62 37.05,21.33 40.27,27.02 C41.01,28.33 41.86,29.57 42.59,30.88 C42.8273467,31.4802962 43.0016175,32.1036493 43.11,32.74 L38.62,32.05 C39.71,33.74 40.52,35.05 41.38,36.33 C43.47,39.42 45.61,42.48 47.68,45.59 C48.2311815,46.5448369 48.7286223,47.5297029 49.17,48.54 L43.4,49.09 C45.5,53.28 49.75,55.09 52.6,58.94 C46.03,59.54 40,59.94 33.86,60.69 C34.03,63.04 34.18,65.1 34.31,67.16 C34.45,69.38 34.58,71.61 34.71,73.83 C34.83,75.84 34.67,77.75 32.61,78.84 Z M24.22,1.49 C23.86,2.26 23.52,2.85 23.3,3.49 C22.4286475,6.38112557 21.293892,9.18621443 19.91,11.87 C16.71,17.4 13.79,23.08 10.12,28.33 C9.90197771,28.7487946 9.73414998,29.1918598 9.62,29.65 L12.91,29.8 C12.9760059,30.0951957 13.0029032,30.3977901 12.99,30.7 C12.78,31.46 12.54,32.21 12.3,32.96 C10.74,37.77 8.08,42.07 5.9,46.59 C5.68,47.05 5.52,47.54 5.29,48.11 C6.88,48.37 8.29,47.73 9.69,48.84 C7.48,53.84 4.13,58.17 2.03,63.51 C6.39,63.34 10.38,62.39 14.41,61.94 C18.44,61.49 22.41,61.19 26.41,60.71 C30.41,60.23 34.41,59.41 38.41,59.17 C42.41,58.93 46.41,58.54 50.47,58.17 L50.57,57.71 C48.97,56.32 47.32,54.97 45.79,53.51 C44.1390126,51.9386846 42.6728491,50.1839855 41.42,48.28 L47.64,47.64 C46.7152618,45.644011 45.578739,43.7531588 44.25,42 C43,40.2 41.65,38.45 40.5,36.54 C39.35,34.63 37.86,33.25 37.05,30.93 L41.81,31.45 C41.34,30.55 41.07,29.98 40.76,29.45 C39.23,26.85 37.62,24.3 36.16,21.67 C33.33,16.59 30.62,11.44 27.79,6.36 C26.9483185,4.50799487 25.7328881,2.84997069 24.22,1.49 Z M28.6,63.38 C29.05,67.38 29.52,71.63 30.03,75.9 C30.2,77.35 30.69,77.95 31.37,77.67 C32.37,77.24 31.96,76.35 31.9,75.61 C31.53,71.55 31.15,67.49 30.76,63.43 C30.7678017,62.9294361 30.7003832,62.4305389 30.56,61.95 C30.42,61.64 29.94,61.22 29.68,61.27 C29.2623513,61.4042103 28.9072313,61.6847551 28.68,62.06 C28.47,62.31 28.6,62.75 28.6,63.38 Z M27.5,61.86 C26.25,61.47 25.83,61.98 25.91,62.98 C26.04,64.69 26.17,66.4 26.38,68.1 C26.72,70.86 27.08,73.63 27.52,76.38 C27.75,77.78 27.84,77.77 29.45,77.38 L27.5,61.86 Z M26.65,77 C26.23,73.5 25.83,70.3 25.46,67.09 C25.3,65.73 25.23,64.37 25.02,63.02 C24.96,62.62 24.58,62.02 24.28,61.96 C23.46,61.85 23.47,62.55 23.48,63.15 C23.48,63.44 23.48,63.73 23.48,64.01 C23.74,66.87 23.96,69.74 24.29,72.59 C24.4921598,74.0840903 24.7894302,75.5637619 25.18,77.02 C25.25,77.31 25.76,77.49 26.07,77.73 L26.65,77 Z M32.24,60.54 C31.93,61.21 31.62,61.54 31.64,61.9 C31.7635195,66.9874643 32.2178118,72.061508 33,77.09 C34.2,74.84 33.65,63.65 32.24,60.58 L32.24,60.54 Z M23.36,77.64 L24.03,77.43 C24.03,76.66 23.97,75.89 23.89,75.13 C23.77,73.92 23.58,72.73 23.46,71.52 C23.2,68.82 22.96,66.11 22.71,63.4 C22.65,62.75 22.71,62.03 21.54,62.31 C21.444515,62.6352084 21.3907509,62.9712342 21.38,63.31 C21.55,65.74 21.71,68.16 21.94,70.58 C22.11,72.36 22.32,74.14 22.6,75.9 C22.7819974,76.5086142 23.037197,77.0928871 23.36,77.64 Z" id="Shape"></path>
            <path d="M32.51,36 L33.51,33.59 C33.94,35 33.85,35.41 32.7,37.59 L30.78,35.75 L29.78,37.07 C28.39,36.33 28.52,34.97 28.08,33.86 L28.48,33.64 L29.39,34.9 C30.83,34.26 30.83,34.26 32.51,36 Z" id="Shape"></path>
            <path d="M14.59,49.35 L15.34,50.89 C16.89,50.21 17.18,51.7 18.03,52.57 L18.96,51.37 C19.66,51.55 19.45,52.37 18.28,54.12 L16.44,52.32 L15.72,53.79 C15.47,53.79 15.25,53.79 15.23,53.69 C14.81,52.3 14.4,50.9 14,49.51 L14.59,49.35 Z" id="Shape"></path>
            <path d="M23,21.39 C23.0136643,22.6471154 22.4220224,23.8341203 21.41,24.58 L20.13,22.43 L18.43,24 C18.1091349,22.4226863 18.3091666,20.7838301 19,19.33 L19.31,21.33 L20.58,21.15 L21.48,22.86 L22.62,21.14 L23,21.39 Z" id="Shape"></path>
        </g>
    </g>
</svg>