<?xml version="1.0" encoding="UTF-8"?>
<svg width="53px" height="72px" viewBox="0 0 53 72" version="1.1" xmlns="http://www.w3.org/2000/svg" xmlns:xlink="http://www.w3.org/1999/xlink">
    <!-- Generator: Sketch 49.1 (51147) - http://www.bohemiancoding.com/sketch -->
    <title>present-2</title>
    <desc>Created with Sketch.</desc>
    <defs></defs>
    <g id="Images" stroke="none" stroke-width="1" fill="none" fill-rule="evenodd">
        <g id="present-2" fill="#000000" fill-rule="nonzero">
            <path d="M33.5,16.83 C36.18,16.46 38.85,16.04 41.5,15.75 C44.15,15.46 46.74,15.23 49.36,15.12 C51.98,15.01 52.19,15.29 52.03,18.02 C51.94,19.52 51.94,21.02 51.71,22.51 C51.5161755,23.0879395 51.1178718,23.5751502 50.59,23.88 C49.91,24.33 49.3,24.66 49.18,25.63 C48.48,31.49 47.55,37.33 47,43.2 C46.4,50 45.26,56.78 44,63.52 C43.63,65.52 43.35,67.62 42.79,69.6 C42.23,71.58 41.66,71.89 39.65,71.76 C34.87,71.47 30.1,71.09 25.32,70.84 C22.45,70.69 19.57,70.75 16.7,70.67 C15.21,70.67 13.7,70.49 11.87,70.38 C10.49,69.5 10.05,67.65 9.69,65.93 C7.62,56.18 5.69,46.4 3.69,36.63 C3.12,33.74 2.77,30.8 2.3,27.71 C0.3,27.4 -0.17,26.01 0.2,24.13 C0.254422936,23.6534946 0.237571397,23.1715406 0.15,22.7 C-0.13,20.19 0.15,19.7 2.77,19.37 C5.39,19.04 8.26,19 11,18.79 C12.57,18.67 14.13,18.46 16.22,18.24 C15.22,17.34 14.55,16.71 13.85,16.13 C11.8517822,14.4969221 10.5299431,12.1810316 10.14,9.63 C9.82733766,8.07572774 10.3556311,6.47160393 11.530685,5.40728807 C12.7057389,4.34297221 14.3541579,3.97551882 15.87,4.44 C17.5125151,4.79907519 18.9753001,5.72704053 20,7.06 C20.81,8.23 21.67,9.37 22.61,10.68 C23.45,10.26 24.09,8.49 25.44,10.24 C27.06,7.07 28.76,4.37 31.37,2.41 C32.83,1.31 34.24,0.11 36.23,0.08 C38.64,0.08 40.23,1.24 40.53,3.63 C40.77,5.86 40.7,8.09 39.18,10.01 C37.66,11.93 36.32,14.24 34,15.6 C33.7029042,15.8348756 33.437376,16.107126 33.21,16.41 L33.5,16.83 Z M28.18,69.19 C28.97,69.24 29.75,69.3 30.53,69.34 C32.68,69.43 34.83,69.48 36.98,69.61 C40.98,69.85 40.49,70.17 41.68,66.04 C41.7245118,65.8053998 41.7545684,65.5682865 41.77,65.33 C42.16,62.82 42.57,60.33 42.95,57.79 C43.36,55.05 43.75,52.3 44.19,49.28 C38.6,47.88 33.1,49.28 27.54,48.93 C27.4875975,49.3416724 27.4875975,49.7583276 27.54,50.17 C28.72,53.61 27.54,57.11 27.69,60.59 C27.8,63.4 27.56,66.23 28.18,69.19 Z M47.18,23.78 L31.09,25.41 L34.91,36.2 C32.868891,37.2986309 30.5470437,37.765089 28.24,37.54 C28.24,38.08 28.24,38.48 28.24,38.86 C28.2934499,39.2435687 28.3668831,39.6240863 28.46,40 C34.0549693,40.5653277 39.6859825,40.6857057 45.3,40.36 L47.18,23.78 Z M7.18,42.43 C8.18,42.36 9.04,42.33 9.91,42.24 C13.25,41.92 16.59,41.55 19.91,41.24 C20.78,41.17 21.59,41.15 21.6,40.05 C21.61,38.95 20.86,39.05 20.11,38.87 C17.21,38.29 16.68,37.3 17.6,34.48 C18.37,32.13 19.12,29.78 19.84,27.42 C19.9404016,26.8591482 19.9839555,26.2895968 19.97,25.72 L4.45,27.11 C4.8544974,32.2917059 5.75869828,37.4222087 7.15,42.43 L7.18,42.43 Z M21.25,49.51 C17.84,48.58 10.95,48.83 8.54,49.98 L12.14,66.71 C13,65.22 12.39,63.54 14.4,62.71 C14.15,64.33 13.91,65.62 13.76,66.91 C13.61,68.2 13.66,68.25 15.42,68.11 C15.9,66.61 15.9,64.91 17.25,63.41 L17,68.59 L21.17,68.93 L21.25,49.51 Z M25.35,68.58 C25.48,67.26 25.71,65.86 25.74,64.45 C25.9866667,53.0366667 26.21,41.62 26.41,30.2 C26.5255582,28.8784929 26.0748648,27.570028 25.17,26.6 C24.82,28.49 24.4,30.1 24.25,31.73 C23.82,36.73 23.25,41.73 23.19,46.73 C23.04,53.73 22.39,60.73 23.93,67.68 C24.07,68.5 24.22,68.92 25.32,68.59 L25.35,68.58 Z M50,16.94 C42.8581434,17.4692078 35.7592374,18.4714062 28.75,19.94 C29.75,23.36 29.94,23.48 32.94,23.16 C37.69,22.66 42.43,22.16 47.17,21.61 C49.83,21.28 50,21 50.12,18.31 C50.13,18 50.07,17.7 50,16.94 Z M22,20.24 C13.64,20.09 4,21 2,22 C2,22.42 2,22.89 2.09,23.35 C2.18,23.81 2.26,24.4 2.41,25.26 L20.94,23.76 L22,20.24 Z M44.7,42.63 C41.78,42.63 39.09,42.57 36.39,42.63 C33.69,42.69 31.06,41.63 28.33,42.49 L27.62,46.28 C29.31,46.98 42.62,46.93 44.68,46.28 L44.7,42.63 Z M21.27,46.63 L21.14,43.25 C16.6116334,43.4183813 12.0988891,43.8793426 7.63,44.63 C7.74,45.43 7.79,45.97 7.91,46.5 C7.99470978,46.7605522 8.11232665,47.0092279 8.26,47.24 L21.27,46.63 Z M34.77,6.79 C30.77,8.73 29.04,12.29 28.13,16.39 C31.22,13.82 33.92,11 34.77,6.79 Z M16.59,10.67 C16.2042101,12.4000731 16.685515,14.209617 17.8798514,15.519406 C19.0741879,16.829195 20.8317682,17.4749619 22.59,17.25 L16.59,10.67 Z" id="Shape"></path>
        </g>
    </g>
</svg>