<?xml version="1.0" encoding="UTF-8"?>
<svg width="51px" height="73px" viewBox="0 0 51 73" version="1.1" xmlns="http://www.w3.org/2000/svg" xmlns:xlink="http://www.w3.org/1999/xlink">
    <!-- Generator: Sketch 49.1 (51147) - http://www.bohemiancoding.com/sketch -->
    <title>present-1</title>
    <desc>Created with Sketch.</desc>
    <defs></defs>
    <g id="Images" stroke="none" stroke-width="1" fill="none" fill-rule="evenodd">
        <g id="present-1" fill="#000000" fill-rule="nonzero">
            <path d="M1,72.19 C0.84,70.63 0.55,69.05 0.54,67.48 C0.44,58.0533333 0.38,48.6266667 0.36,39.2 C0.36,34.9 0.52,30.59 0.62,26.29 C0.62,25.29 0.35,24.08 0.82,23.4 C1.14,22.93 2.57,23.32 3.47,23.14 C5.96,22.66 8.47,22.08 11.14,21.49 C10.9423239,21.1103929 10.7219234,20.7430587 10.48,20.39 C8.22,17.59 8.93,12.89 12.2,11.33 C14.4432606,10.3884458 16.0679307,8.38856321 16.53,6 C17.36,2.62 22.12,0 25.62,0.45 C25.86,0.45 26.09,0.59 26.32,0.6 C29.86,0.74 31.64,2.76 32.14,6.05 C33.45,6.59 34.74,7.05 35.93,7.62 C39.36,9.38 41.12,11.86 39.28,16.54 C39.14,16.89 39.03,17.24 38.81,17.89 L46.81,16.66 C49.08,16.31 49.87,17.19 49.89,19.53 C49.89,25.44 50.13,31.34 50.24,37.25 C50.3066667,40.9233333 50.35,44.59 50.37,48.25 C50.37,52.49 50.44,56.72 50.37,60.96 C50.37,63.18 50.04,65.39 49.85,67.77 C48.94,67.88 48.25,67.97 47.56,68.04 C41.21,68.67 34.86,69.38 28.5,69.9 C24.84,70.2 21.15,70.03 17.5,70.35 C12.08,70.82 6.72,71.54 1,72.19 Z M20.44,47.87 C19.52,47.87 18.74,47.79 17.96,47.87 C13.51,48.31 9.06,48.75 4.61,49.24 C2.45,49.48 2.32,49.58 2.33,51.72 C2.33,55.32 2.42,58.92 2.54,62.51 C2.62,64.8 2.82,67.08 2.96,69.38 L22.61,67.8 L20.44,47.87 Z M30.25,66.8 C32.09,66.61 33.67,66.44 35.25,66.3 C38.67,65.99 42.1,65.75 45.51,65.39 C47.64,65.16 47.82,65.09 47.89,62.91 C48,59.01 47.89,55.09 47.78,51.19 C47.78,49.54 47.5,47.89 47.34,46.19 C46.9188049,46.1350515 46.4947348,46.1049993 46.07,46.1 C41.07,46.38 36.02,46.64 31,46.96 C29.23,47.07 29,47.39 29.13,49.25 C29.33,52.92 29.5,56.59 29.73,60.25 C29.84,62.28 30,64.34 30.25,66.8 Z M28.27,38 L47.27,36.35 C46.84,30.41 48.27,24.6 47.16,18.59 C42.79,19.05 38.58,19.19 34.63,20.87 C34.2017454,21.0786917 33.7160993,21.1385177 33.25,21.04 C31.09,20.3 29.13,21.3 27.01,21.38 L28.27,38 Z M20.2,22.51 C16.94,22.24 7.99,23.63 2.73,25.14 C2.05,27.46 2.03,38.9 2.73,40.74 L20.27,39.08 C19.51,33.42 20.2,28 20.2,22.51 Z M14.83,11.57 C13.6871195,12.4747777 12.626336,13.4786737 11.66,14.57 C10.8205422,15.5705712 10.6021539,16.9528828 11.0922695,18.1635103 C11.5823852,19.3741377 12.7008986,20.2152123 14,20.35 C14.6138227,20.5300292 15.250322,20.6209577 15.89,20.62 C19.22,20.29 22.55,19.91 25.89,19.52 C27.9062597,19.1287591 29.9483205,18.8847813 32,18.79 C33.795979,18.9327427 35.4780802,17.8976035 36.16,16.23 C37.2077196,14.5535682 37.2077196,12.4264318 36.16,10.75 C35.16,9.2 33.76,8.2 31.93,8.64 C31.06,9.99 30.36,11.23 29.49,12.34 C29.0788654,12.7904968 28.4998353,13.0510604 27.89,13.06 C25.77,12.98 25.05,11.58 25.89,9.61 C26.6645966,7.95850162 28.128193,6.73273969 29.89,6.26 C29.28,2.69 27.41,1.73 24.23,2.15 C22.6129987,2.28787146 21.1560844,3.1812973 20.3,4.56 C19.3,6.21 17.69,7.62 17.95,9.79 C20.49,11.4 21.2,12.61 20.7,14.39 C20.3326659,15.5632582 19.2288242,16.3482123 18,16.31 C16.28,16.16 15.41,15 14.83,11.57 Z M17.69,11.93 L17.24,12.13 C17.1345476,12.5655272 17.1175454,13.0177846 17.19,13.46 C17.31,13.77 17.81,13.94 18.19,14.17 C18.35,13.81 18.71,13.38 18.63,13.1 C18.3872099,12.6554122 18.0652608,12.2589065 17.68,11.93 L17.69,11.93 Z M29.1,9.13 C28.04,9.47 27.45,9.87 27.67,11.06 C28.78,10.85 29.1,10.26 29.1,9.13 Z" id="Shape"></path>
        </g>
    </g>
</svg>