<?xml version="1.0" encoding="UTF-8"?>
<svg width="42px" height="71px" viewBox="0 0 42 71" version="1.1" xmlns="http://www.w3.org/2000/svg" xmlns:xlink="http://www.w3.org/1999/xlink">
    <!-- Generator: Sketch 49.1 (51147) - http://www.bohemiancoding.com/sketch -->
    <title>striped-ornament</title>
    <desc>Created with Sketch.</desc>
    <defs></defs>
    <g id="Images" stroke="none" stroke-width="1" fill="none" fill-rule="evenodd">
        <g id="striped-ornament" fill="#000000" fill-rule="nonzero">
            <path d="M22.34,21.3 C24.76,22.16 25.22,23.73 24.44,25.57 C25.37,27.18 26.14,28.67 27.08,30.04 C27.5420694,30.6553857 28.1551866,31.1410572 28.86,31.45 C33.6101522,33.6275175 37.4860849,37.3448893 39.86,42 C42.1185885,46.1259133 42.5325021,51.0129988 41,55.46 C40.3309395,57.9280003 39.2672117,60.2715784 37.85,62.4 C33.47,68.4 27.45,70.62 20.29,70.08 C12.72,69.51 7,65.56 3,59.37 C-1.23,52.87 0.13,44.9 4.53,39.21 C6.69298282,36.4178455 9.41853426,34.1113476 12.53,32.44 C13.4530871,31.9830156 14.1960923,31.2294464 14.64,30.3 C15.571998,28.1481128 17.3199608,26.4540995 19.5,25.59 C21.69,21.68 20.84,17.72 20.64,13.77 C20.45,10.03 20.64,6.26 20.64,2.51 C20.6452292,2.03117546 20.7472762,1.55835808 20.94,1.12 C21.0977014,0.865225344 21.3707138,0.704409819 21.67,0.69 C21.9749561,0.74524656 22.2330831,0.94725901 22.36,1.23 C22.4183556,1.69818863 22.4183556,2.17181137 22.36,2.64 C22.36,6.86 22.36,11.08 22.36,15.3 C22.34,17.22 22.34,19.14 22.34,21.3 Z M2.84,54.87 C12.84,53.62 34.97,45.81 38.61,42.26 C37.43,40.15 36.24,38.01 34.19,36.53 C24.19,42.53 13.45,46.03 2.24,48.42 C2.27,50.75 1.72,52.82 2.84,54.87 Z M5.16,59.82 C8.16,64.69 9.23,65.12 14.41,63.82 C14.72,63.74 15.03,63.66 15.33,63.57 C19.33,62.32 23.33,61.21 27.18,59.77 C30.91,58.39 34.52,56.66 38.18,55.08 C39.0407133,54.8405909 39.7103314,54.1633634 39.94,53.3 C40.3510687,51.3261836 40.415362,49.2958701 40.13,47.3 C28.79,52.58 16.93,55.77 5.15,59.81 L5.16,59.82 Z M3.85,43.7 C7.5,43.75 26.91,36.19 29.79,33.59 C22.95,28.51 8,33.23 3.85,43.7 Z M3.85,58.41 C4.62521101,58.3265841 5.39371565,58.1895898 6.15,58 C15.27,54.9 24.39,51.82 33.48,48.63 C35.3993877,47.8548068 37.2666196,46.956264 39.07,45.94 C39.75,45.59 39.99,45.07 39.17,44.33 C27.85,50.1 15.51,53.17 3.17,56.61 L3.85,58.41 Z M16.67,68.16 C25.53,70.63 34.79,66.68 37.13,60.3 L16.67,68.16 Z M32.38,35.16 C32.12,35.02 31.93,34.85 31.85,34.89 C22.69,39.45 13.02,42.67 3.26,45.64 C3.13548849,45.7275226 3.04393769,45.8542852 3,46 C2.93081555,46.2376282 2.89052498,46.4827291 2.88,46.73 C11.9050198,45.1550763 20.6274938,42.1756006 28.73,37.9 C30,37.18 31.68,36.75 32.43,35.15 L32.38,35.16 Z M11.85,65.92 C12.5051034,66.8988481 13.7508701,67.2933409 14.85,66.87 C22.9732852,64.5859832 30.8566462,61.5217201 38.39,57.72 C38.57,57.63 38.55,57.14 38.67,56.65 C29.9873937,60.4397356 21.0196327,63.5393309 11.85,65.92 Z M16.07,30.92 C17.93,30.61 19.41,30.41 20.88,30.11 C22.35,29.81 23.82,30.86 25.18,29.83 C24.18,26.73 22.65,25.71 20.32,26.73 C18.406914,27.5246584 16.8836948,29.0406926 16.08,30.95 L16.07,30.92 Z M23.07,22.59 L21.35,24.44 C23.2,24.6 23.2,24.6 23.1,22.61 L23.07,22.59 Z" id="Shape"></path>
        </g>
    </g>
</svg>