<?xml version="1.0" encoding="UTF-8"?>
<svg width="6712px" height="3548px" viewBox="0 0 6712 3548" version="1.1" xmlns="http://www.w3.org/2000/svg" xmlns:xlink="http://www.w3.org/1999/xlink">
    <!-- Generator: Sketch 52.5 (67469) - http://www.bohemiancoding.com/sketch -->
    <title>Group 4</title>
    <desc>Created with Sketch.</desc>
    <defs>
        <linearGradient x1="50%" y1="-31.5154302%" x2="50%" y2="118.113245%" id="linearGradient-1">
            <stop stop-color="#4CB5CF" offset="0%"></stop>
            <stop stop-color="#40CAD9" offset="0%"></stop>
            <stop stop-color="#89E0EE" offset="0%"></stop>
            <stop stop-color="#FFFFFF" offset="100%"></stop>
        </linearGradient>
    </defs>
    <g id="Holidelays-Game" stroke="none" stroke-width="1" fill="none" fill-rule="evenodd">
        <g id="Group-4">
            <rect id="Rectangle" stroke="#979797" fill="url(#linearGradient-1)" x="0.5" y="0.5" width="6711" height="3547"></rect>
            <path d="M3334.55469,1268.28516 C3328.72526,1268.28516 3322.88201,1267.8839 3317.06641,1268.28516 C3309.06716,1268.83707 3304.47836,1278.77883 3307.31641,1285.84766 C3309.63472,1291.62196 3334.64375,1299.85569 3344.39844,1305.75781 C3345.04235,1306.14741 3346.49535,1305.02261 3346.65625,1305.75781 C3351.33925,1327.15538 3348.20855,1351.37137 3355.82422,1372.06641 C3356.60145,1374.17847 3356.37729,1382.3225 3360.21484,1384.15234 C3361.79296,1384.90483 3363.74223,1384.77786 3365.45312,1384.41797 C3367.34723,1384.01954 3369.15307,1383.09927 3370.70703,1381.94531 C3378.50225,1376.15667 3385.34345,1369.10481 3393.39062,1363.67188 C3402.81957,1357.30605 3413.44019,1352.85998 3422.97656,1346.65625 C3425.58678,1344.95822 3426.57024,1340.68167 3429.62891,1340.09766 C3439.36148,1338.23935 3449.49524,1338.69647 3459.35156,1339.71094 C3467.47577,1340.54712 3467.49229,1351.38564 3472.79297,1354.69531 C3479.71335,1359.01631 3488.38678,1359.57272 3495.92578,1362.69141 C3499.70148,1364.25331 3502.84171,1370.24995 3506.61719,1368.6875 C3509.89189,1367.33229 3508.63767,1361.26025 3507.10156,1358.06641 C3501.27174,1345.94513 3491.66192,1335.97215 3485.20703,1324.17188 C3484.13486,1322.21182 3484.20172,1319.59929 3484.89844,1317.47656 C3487.96032,1308.14773 3490.63438,1298.33151 3496.31641,1290.32422 C3501.00601,1283.71548 3509.07297,1280.30878 3515.10937,1274.90234 C3517.53925,1272.72606 3519.61647,1270.17445 3521.65625,1267.62891 C3523.74549,1265.02165 3525.78187,1262.34811 3527.47656,1259.46875 C3528.38775,1257.9206 3529.11093,1256.21136 3529.41797,1254.44141 C3529.76916,1252.41695 3531.46309,1248.47536 3529.41797,1248.27734 C3447.19107,1240.31579 3522.22498,1249.53999 3507.10156,1243 C3503.56564,1241.47092 3491.88057,1246.63901 3475.78516,1241.88672 C3470.84859,1240.42916 3463.74747,1244.0337 3460.44922,1240.08203 C3455.04336,1233.60522 3456.66304,1223.60435 3453.87891,1215.64063 C3445.62345,1192.02671 3430.12094,1170.69201 3414.38281,1151.76172 C3413.94358,1151.2334 3412.76826,1151.46992 3412.33594,1152.00391 C3411.47264,1153.07022 3411.28292,1154.5583 3411.02734,1155.90625 L3408.16797,1182.33203 C3393.39063,1208.55469 3395.18807,1204.53577 3394.6368,1208.55469 C3393.58661,1216.21093 3401.47573,1217.45022 3386.10156,1239.75391 C3369.48199,1263.86434 3385.00694,1265.29769 3345.70312,1265.79688 L3334.55469,1268.28516 Z" id="Path-2" stroke="#979797" fill="#FDDE2D"></path>
            <path d="M3160.05869,2166.38279 L3087.60412,2184.89068 C3090.19392,2167.4709 3094.14566,2150.28122 3099.42295,2133.47985 C3141.81658,2034.25695 3183.95329,1935.03405 3227.88851,1836.83937 C3247.65729,1795.00005 3269.78913,1754.31977 3294.17674,1714.9957 C3340.83232,1631.78748 3379.70832,1544.4467 3410.3096,1454.08574 C3420.58685,1426.58095 3431.12102,1398.56205 3402.34474,1372.08547 L3339.91047,1417.58405 L3339.91047,1322.98813 L3272.85145,1271.5773 C3303.16932,1262.5804 3324.23768,1255.12583 3347.10455,1249.98475 C3363.95222,1247.30532 3377.69893,1235.05787 3382.30411,1218.62414 C3392.32442,1188.54881 3404.91405,1159.50169 3419.30219,1123 C3429.06557,1138.16619 3435.74578,1148.70541 3441.6552,1157.95936 C3444.01491,1163.06119 3446.07389,1168.29692 3447.82154,1173.63967 C3473.51466,1231.7339 3473.51466,1231.7339 3536.46278,1230.19158 C3543.39992,1230.19158 3550.33706,1230.19158 3558.55886,1230.19158 C3563.44055,1254.09762 3545.19844,1262.83746 3532.86574,1273.89078 C3501.00629,1301.39558 3500.23549,1306.02255 3514.3667,1345.86595 C3520.53305,1363.08857 3535.94892,1379.79709 3521.30384,1404.21724 L3473.25773,1368.48671 C3465.45861,1387.68515 3467.27172,1409.45293 3478.13942,1427.09506 C3538.77516,1539.17067 3600.1817,1650.98922 3660.56051,1763.06483 C3715.8007,1865.88649 3772.58248,1966.90877 3823.71177,2071.5298 C3839.84558,2113.1633 3852.14374,2156.18447 3860.45292,2200.05688 C3818.83008,2211.62432 3790.82459,2177.95022 3757.68047,2181.03487 C3780.54734,2251.72476 3803.67114,2320.10117 3824.7395,2389.24873 C3845.80785,2458.3963 3868.93165,2526.00154 3890,2604.146 L3805.21273,2596.17732 L3884.60445,2767.88949 C3864.1229,2796.3053 3831.23698,2813.13871 3796.22014,2813.13102 C3738.9245,2816.98683 3681.88579,2823.15613 3624.59015,2828.55427 C3610.71587,2829.83954 3597.09852,2832.15303 3581.1688,2834.20946 C3578.71915,2843.73538 3577.086,2853.45297 3576.2871,2863.25658 C3576.2871,2926.23485 3576.2871,2989.47017 3578.59948,3052.44843 C3579.88414,3103.85926 3575.77324,3109.2574 3527.21326,3109.77151 C3478.65328,3110.28562 3431.89182,3109.77151 3384.10263,3109.77151 C3336.31344,3109.77151 3332.7164,3105.65864 3328.60551,3058.36068 C3325.00847,2998.21001 3321.24015,2938.23071 3317.30054,2878.42277 C3316.58,2872.50782 3315.37698,2866.66176 3313.7035,2860.94309 C3254.60934,2860.94309 3197.3137,2859.14371 3140.275,2860.94309 C3083.23629,2862.74247 3030.05155,2869.42588 2977.6376,2873.7958 C2966.47773,2858.88393 2964.87836,2838.88226 2973.5267,2822.38497 L3045.98127,2611.85762 C3050.86297,2597.46259 3055.48773,2583.06756 3061.39714,2565.84493 L3005.90002,2561.47501 C3050.48853,2428.46066 3104.58368,2298.82785 3167.76662,2173.5803 L3160.05869,2166.38279 Z M3554.70489,2834.72357 L3334.25799,2855.54496 C3334.25799,2875.85223 3334.25799,2891.01843 3334.25799,2906.95578 C3338.02631,2956.82429 3342.05157,3005.75026 3346.33375,3053.7337 C3349.15999,3087.15074 3353.78475,3091.77772 3387.95659,3092.29183 C3435.48885,3092.29183 3483.27804,3092.29183 3530.8103,3092.29183 C3539.59808,3091.17129 3548.22243,3089.01417 3556.50341,3085.86547 L3554.70489,2834.72357 Z M3526.6994,1255.12583 C3520.53305,1251.27002 3519.50533,1249.98475 3518.4776,1249.72769 C3513.00361,1249.33015 3507.50801,1249.33015 3502.03401,1249.72769 C3462.98048,1254.35467 3463.23741,1254.35467 3446.53689,1217.33887 C3439.34282,1201.40152 3431.12102,1185.97827 3418.5314,1161.04401 L3378.964,1265.92211 L3320.64064,1275.43311 L3320.64064,1283.40179 L3357.12486,1301.13852 L3357.12486,1373.88485 C3399.77543,1367.20144 3408.51108,1320.93169 3437.03044,1308.85015 C3466.57752,1311.42069 3462.72355,1351.00703 3494.83994,1350.23587 L3475.05624,1296.7686 L3526.6994,1255.12583 Z M3287.2396,2363.28626 C3318.84212,2260.4646 3312.93271,2153.27302 3325.00847,2048.13788 C3296.29623,2150.61932 3283.55681,2256.91872 3287.2396,2363.28626 Z M3359.9511,2793.0808 L3369.20062,2793.0808 L3369.20062,2498.23969 L3360.46496,2498.23969 C3355.32634,2596.17732 3345.81989,2694.62906 3359.69417,2793.0808 L3359.9511,2793.0808 Z M3625.87481,2504.9231 L3635.38126,2504.9231 C3646.17237,2466.10792 3620.22233,2276.91607 3595.04308,2245.55546 L3625.87481,2504.9231 Z M3323.20995,2804.39118 L3336.05651,2802.5918 L3336.05651,2533.45611 C3325.52233,2613.657 3320.89757,2694.11495 3317.0436,2774.5729 C3317.84738,2784.73081 3319.91894,2794.74811 3323.20995,2804.39118 Z M3202.70926,2630.62258 C3178.04915,2690.48244 3166.14786,2754.83269 3167.76662,2819.55737 L3211.44492,2811.07459 C3211.44492,2797.45072 3214.27116,2779.97104 3207.84788,2774.31584 C3183.69635,2753.49446 3192.43201,2728.56021 3194.23053,2704.39712 C3196.02905,2680.23403 3200.13995,2655.04272 3202.70926,2630.62258 Z M3519.76226,1948.91498 C3509.74194,1986.44488 3544.17071,2154.55829 3568.32224,2187.97533 C3556.28427,2107.50101 3540.07577,2027.70669 3519.76226,1948.91498 Z M3506.14491,2243.75608 L3493.81221,2243.75608 C3496.38153,2283.85653 3497.40925,2324.21403 3501.77708,2364.05743 C3506.14491,2403.90082 3499.72163,2445.54359 3514.10977,2483.84466 L3525.9286,2482.55939 L3506.14491,2243.75608 Z M3382.30411,2363.02921 C3395.4076,2319.84411 3395.4076,2189.00355 3382.30411,2160.72759 C3365.60359,2309.819 3365.60359,2337.58085 3382.56104,2363.02921 L3382.30411,2363.02921 Z M3728.1334,2446.57181 L3735.32747,2444.51537 C3733.78588,2415.98236 3732.75816,2387.44935 3730.18884,2359.1734 C3729.93677,2348.07336 3726.93516,2337.20942 3721.45319,2327.55574 C3717.59922,2321.90054 3705.52346,2321.64349 3697.30166,2319.07295 C3695.50314,2326.52752 3689.85066,2336.80969 3692.6769,2340.6655 C3710.74856,2365.13812 3719.8239,2395.10108 3718.37001,2425.49337 C3719.39774,2432.43383 3725.30715,2439.63134 3728.39033,2446.57181 L3728.1334,2446.57181 Z M3143.35817,2661.72613 C3120.37149,2711.83856 3108.9556,2766.48537 3109.95712,2821.61381 C3130.76854,2796.16545 3146.69827,2720.33447 3143.35817,2661.72613 Z M3611.7436,2636.02071 C3596.84159,2676.37821 3611.7436,2713.13696 3613.79905,2747.83927 C3613.79905,2761.97725 3613.79905,2777.9146 3629.98571,2788.19677 C3634.78256,2736.66635 3628.56414,2684.70458 3611.7436,2635.76366 L3611.7436,2636.02071 Z M3429.3225,2577.66942 L3419.30219,2576.1271 L3426.23933,2802.33475 C3434.46113,2798.99304 3438.82896,2797.96483 3438.82896,2796.93661 C3435.74578,2723.76186 3432.49132,2650.58711 3429.06557,2577.41237 L3429.3225,2577.66942 Z M3534.40733,2259.69344 C3524.38702,2319.07295 3534.40733,2428.83507 3553.42023,2460.70978 C3551.95737,2393.32078 3545.51654,2326.13219 3534.1504,2259.69344 L3534.40733,2259.69344 Z M3391.2967,2560.18974 C3380.22715,2640.45688 3381.52691,2721.94773 3395.15067,2801.82064 C3401.57394,2794.88018 3404.65712,2792.82374 3404.65712,2791.02436 C3400.28929,2714.16517 3395.66453,2637.56304 3391.2967,2560.18974 Z M3615.34063,1854.31905 C3622.79164,1903.15934 3629.47185,1952.51373 3662.35903,1993.12829 C3654.86352,1944.44172 3638.86094,1897.45512 3615.0837,1854.31905 L3615.34063,1854.31905 Z M3082.97936,2805.16234 L3122.03289,2644.5035 C3096.62089,2694.2583 3083.24389,2749.28876 3082.97936,2805.16234 Z M3332.7164,2251.72476 C3318.17742,2283.38113 3316.06802,2319.34977 3326.80699,2352.48999 C3337.7234,2320.02986 3339.7637,2285.23939 3332.7164,2251.72476 Z M3262.83114,2805.16234 C3276.00262,2763.33332 3276.00262,2718.46429 3262.83114,2676.63527 L3262.83114,2805.16234 Z M3659.27586,2686.14627 L3655.93575,2686.14627 C3659.01892,2713.65107 3661.58824,2741.15586 3665.95606,2768.4036 C3665.95606,2773.03057 3675.71945,2776.62933 3680.60114,2780.22809 L3659.27586,2686.14627 Z M3481.47952,2347.60596 L3473.25773,2349.66239 L3483.02111,2443.74421 C3490.10782,2412.02649 3489.57952,2379.07992 3481.47952,2347.60596 Z M3519.76226,2625.73855 C3507.17263,2675.09294 3508.45729,2693.34379 3526.95633,2718.53509 L3519.76226,2625.73855 Z M3385.38728,1665.89836 C3358.15258,1679.77928 3351.98624,1693.91726 3353.27089,1729.13368 L3385.38728,1665.89836 Z M3774.12407,2510.32124 C3771.55475,2527.28681 3763.33296,2544.76649 3780.54734,2565.07377 C3790.86942,2547.43605 3788.24771,2525.08837 3774.12407,2510.32124 Z M3262.83114,2088.75243 L3273.36531,2090.0377 L3277.47621,2038.62687 L3268.22669,2038.62687 L3262.83114,2088.75243 Z M3404.91405,1860.48835 L3394.6368,1932.97762 C3413.76178,1913.84587 3418.33218,1884.53975 3405.94177,1860.48835 L3404.91405,1860.48835 Z M3478.65328,2097.23522 L3487.38894,2095.94995 L3477.62555,2032.71463 L3468.63297,2033.9999 L3478.65328,2097.23522 Z M3670.06696,2062.0188 C3666.15068,2071.12324 3666.84587,2081.55589 3671.9355,2090.05963 C3677.02513,2098.56338 3685.88911,2104.1022 3695.76007,2104.94684 L3670.06696,2062.0188 Z M3591.44604,2159.18527 L3600.95249,2156.35767 L3587.07821,2109.83087 L3578.34255,2112.40141 L3591.44604,2159.18527 Z M3560.61431,1725.02081 L3548.79547,1729.90484 L3560.87124,1765.37832 L3570.89155,1762.29367 L3560.61431,1725.02081 Z M3564.98213,2056.36361 L3573.46086,2053.79307 L3562.92669,2013.43557 L3555.47568,2015.23495 L3564.98213,2056.36361 Z M3720.93932,2133.47985 L3724.0225,2147.10372 L3749.71561,2141.19148 L3745.34778,2126.28234 L3720.93932,2133.47985 Z M3431.12102,1375.68423 L3443.19678,1375.68423 L3437.5443,1349.97881 L3429.83637,1351.26408 L3431.12102,1375.68423 Z M3244.84596,2285.91296 L3236.1103,2285.91296 L3233.02713,2330.12628 L3242.79051,2330.12628 L3244.84596,2285.91296 Z M3498.69391,2790.2532 L3500.23549,2795.39428 C3508.71422,2793.59491 3517.19295,2792.05258 3525.9286,2789.73909 C3525.9286,2789.73909 3525.9286,2783.05569 3525.9286,2777.14344 L3498.69391,2790.2532 Z M3824.99643,2767.11833 L3830.90584,2757.35027 C3825.76722,2755.80795 3820.11474,2752.20919 3815.48998,2753.2374 C3810.06317,2755.47582 3805.09772,2758.70055 3800.8449,2762.74841 C3804.44194,2766.09011 3807.52511,2771.48825 3811.63601,2772.25941 C3815.74691,2773.03057 3820.6286,2768.91771 3824.99643,2767.11833 Z M3057.28624,2782.02747 L3051.89069,2782.02747 L3045.98127,2804.13413 L3053.43228,2805.9335 L3057.28624,2782.02747 Z M3489.95825,1997.24116 L3497.92311,1994.92767 L3492.78449,1969.22225 L3487.38894,1969.22225 L3489.95825,1997.24116 Z M3519.76226,1641.22116 L3513.85284,1643.27759 L3520.01919,1662.55666 L3526.95633,1660.24317 L3519.76226,1641.22116 Z" id="Shape" fill="#09A64D" fill-rule="nonzero"></path>
            <path d="M3432,977 L3432,1036 C3417.07308,1020.30918 3413.71502,996.431001 3423.70266,977 L3432,977 Z" id="Shape" fill="#F3BF1C" fill-rule="nonzero"></path>
            <path d="M3549,1042 L3524.51425,1098 C3517.9031,1063.87907 3517.9031,1063.87907 3549,1042 Z" id="Shape" fill="#F3BF1C" fill-rule="nonzero"></path>
            <path d="M3310.13938,1086 C3296.7142,1073.3057 3281.14099,1060.09326 3299.13073,1036 L3319,1082.37306 L3310.13938,1086 Z" id="Shape" fill="#F3BF1C" fill-rule="nonzero"></path>
            <path d="M3604,1149 C3611.4359,1127.68 3627.84615,1123 3654,1123 C3641.87998,1138.65776 3623.61239,1148.1569 3604,1149 Z" id="Shape" fill="#F3BF1C" fill-rule="nonzero"></path>
            <path d="M3226,1151 C3242,1157.88966 3262,1160.44138 3262,1188 L3219,1160.69655 L3226,1151 Z" id="Shape" fill="#F3BF1C" fill-rule="nonzero"></path>
            <polygon id="Shape" fill="#F3BF1C" fill-rule="nonzero" points="3141 1332.5 3181.54286 1322 3184 1331.25 3144.93143 1343"></polygon>
            <path d="M3645,1232 L3692,1232 C3674.08287,1247.62712 3663.69613,1245.67373 3645,1232 Z" id="Shape" fill="#F3BF1C" fill-rule="nonzero"></path>
        </g>
    </g>
</svg>